<svg viewBox="0 0 360 410" xmlns="http://www.w3.org/2000/svg"><path d="m287 399 9-6a13 13 0 0 1 -13 13h-264a13 13 0 0 1 -13-13v-372a13 13 0 0 1 13-13h-6l22.5 355.5a13 13 0 0 0 13 13z" fill="#c5c6ef"/><g fill="#385868"><path d="m66.28 72.42h84.72v14.03h-84.72z"/><path d="m66.28 146.88h84.73v14.03h-84.73z"/><path d="m66.28 108.37h136.07v14.03h-136.07z"/><path d="m66.28 237.42h84.72v14.03h-84.72z"/><path d="m66.28 311.88h84.73v14.03h-84.73z"/><path d="m66.28 273.37h136.07v14.03h-136.07z"/></g><path d="m283 410h-264a19 19 0 0 1 -19-19v-372a19 19 0 0 1 19-19h264a19 19 0 0 1 19 19v372a19 19 0 0 1 -19 19zm-264-398a7 7 0 0 0 -7 7v372a7 7 0 0 0 7 7h264a7 7 0 0 0 7-7v-372a7 7 0 0 0 -7-7z" fill="#426572"/><circle cx="295.5" cy="229.5" fill="#6ae184" r="58.5"/><path d="m347 226.5a58.52 58.52 0 0 1 -65 58.14 58.5 58.5 0 0 0 0-116.28 58.52 58.52 0 0 1 65 58.14z" fill="#a8ff8c"/><path d="m306 284.52a58.5 58.5 0 1 1 0-116 58.5 58.5 0 0 0 0 116z" fill="#389d9c"/><path d="m295.5 291a64.5 64.5 0 1 1 64.5-64.5 64.57 64.57 0 0 1 -64.5 64.5zm0-117a52.5 52.5 0 1 0 52.5 52.5 52.56 52.56 0 0 0 -52.5-52.5z" fill="#426572"/><path d="m284.63 211v37.75c0 9.65 15 9.67 15 0v-37.75c0-9.65-15-9.67-15 0z" fill="#426572"/><path d="m311 222.38h-37.75c-9.65 0-9.67 15 0 15h37.75c9.65 0 9.67-15 0-15z" fill="#426572"/></svg>