<svg viewBox="0 0 411.4 333.96" xmlns="http://www.w3.org/2000/svg" xmlns:xlink="http://www.w3.org/1999/xlink"><linearGradient id="a" gradientTransform="matrix(.98967642 -.14331989 .14331989 .98967642 106.92 463.59)" gradientUnits="userSpaceOnUse" x1="31.74" x2="38.52" y1="-317.7" y2="-274.62"><stop offset=".01"/><stop offset="1" stop-opacity="0"/></linearGradient><linearGradient id="b" x1="139.28" x2="181.87" xlink:href="#a" y1="192.79" y2="200.05"/><linearGradient id="c" x1="206.73" x2="202.38" xlink:href="#a" y1="125.52" y2="193.76"/><linearGradient id="d" x1="199.49" x2="198.03" xlink:href="#a" y1="370.98" y2="214.16"/><linearGradient id="e" x1="199.54" x2="207.63" xlink:href="#a" y1="120.11" y2="157.7"/><linearGradient id="f" x1="193.3" x2="193.95" xlink:href="#a" y1="182.32" y2="167.48"/><linearGradient id="g" x1="192.58" x2="193.15" xlink:href="#a" y1="180.5" y2="167.32"/><linearGradient id="h" x1="240.36" x2="226.8" xlink:href="#a" y1="170.39" y2="381.42"/><linearGradient id="i" x1="166.9" x2="153.34" xlink:href="#a" y1="165.67" y2="376.7"/><linearGradient id="j" gradientUnits="userSpaceOnUse" x1="173.93" x2="174.05" y1="245.41" y2="238.27"><stop offset=".02" stop-color="#fff" stop-opacity="0"/><stop offset=".58" stop-color="#fff" stop-opacity=".39"/><stop offset=".68" stop-color="#fff" stop-opacity=".68"/><stop offset="1" stop-color="#fff"/></linearGradient><linearGradient id="k" x1="98.26" x2="105.36" xlink:href="#j" y1="178.65" y2="141.87"/><linearGradient id="l" x1="148.83" x2="178.35" xlink:href="#j" y1="204.62" y2="204.62"/><linearGradient id="m" x1="147.78" x2="200" xlink:href="#j" y1="278.95" y2="278.95"/><linearGradient id="n" x1="201.19" x2="272.04" xlink:href="#a" y1="252.97" y2="222.99"/><linearGradient id="o" x1="283.12" x2="210.52" xlink:href="#j" y1="274.52" y2="277.43"/><linearGradient id="p" x1="250.66" x2="250.41" xlink:href="#a" y1="215.8" y2="207.57"/><linearGradient id="q" x1="200" x2="200.18" xlink:href="#j" y1="242.15" y2="242.15"/><linearGradient id="r" x1="190.37" x2="173.19" xlink:href="#j" y1="258.39" y2="248.47"/><linearGradient id="s" x1="183.4" x2="122.41" xlink:href="#a" y1="172.86" y2="206.74"/><linearGradient id="t" x1="138.93" x2="154.78" xlink:href="#j" y1="160.9" y2="156.66"/><linearGradient id="u" x1="279.15" x2="218.7" xlink:href="#j" y1="278.32" y2="280.73"/><g transform="translate(-1.84 -8.57)"><path d="m410.07 242.18c-4.49 22.08-14.4 43.37-29.21 60.18a106.1 106.1 0 0 1 -20.08 17.8c-32.8 22.24-75.12 23.77-114.7 21.69a837.19 837.19 0 0 1 -169.78-26.67c-14.28-3.76-23.59-6.8-31.58-12.82-6.36-4.8-11.87-11.48-18.37-21.94-12.76-20.55-21.48-43.76-23.87-67.92-3.64-36.76 8.32-75.62 34.94-101.23 23.7-22.8 56.18-33.49 84.82-49.66 28-15.83 53.22-37.44 83.86-47.3 42.33-13.63 90.45-2.07 125.99 24.69s59.26 67.08 71.78 109.76c8.88 30.24 12.49 62.52 6.2 93.42z" fill="#68e1fd" opacity=".18"/><path d="m113.2 204.84s-22.2-3.27-40.26-6.51-36.44-14.26-30.73-26 65 2.47 73.58-2.56-2.59 35.07-2.59 35.07z" fill="#f1af8c"/><path d="m123 183.3-52.12-6.47 13-9.38a53.52 53.52 0 0 0 32 2.29c17.63-4.25 17.88 4.19 17.88 4.19z" fill="url(#a)"/><path d="m254.11 166.6c3 1 6.13 2.2 8 4.75 1.55 2.15 1.88 4.92 2 7.57.42 11.11-2.45 22.09-2.66 33.21-.13 6.75.72 13.48.91 20.23a208.5 208.5 0 0 1 -1.08 23.3l-2.71 32.11c-.78 9.27-2.16 19.67-9.55 25.3a31.09 31.09 0 0 1 -8.61 4.18c-14.95 5.29-30.64 8.9-46.49 8.87s-31.92-3.86-45.2-12.52a6.28 6.28 0 0 1 -3.66-6.34c-.76-19.18 2.71-38.43.72-57.51-.92-8.85-3-17.62-2.68-26.51.29-7.83 2.44-15.46 4-23.15a148.29 148.29 0 0 0 2.8-33.11 6 6 0 0 1 .61-3.52c.86-1.3 2.54-1.69 4.07-2a510.63 510.63 0 0 1 62.12-7.69c6.36-.39 9.68 3.14 15.29 5.1q11.01 3.89 22.12 7.73z" fill="#fff"/><path d="m167.05 229c-.35 3.42-.85 7.12-3.27 9.56l-.72-36.88c-.24-12.31-.47-24.69 1.28-36.89a7.1 7.1 0 0 1 1.25-3.64c2.13-2.56 15.39-6 14.6-.47-.33 2.32-11.34 50.74-13.14 68.32z" fill="url(#b)"/><path d="m227.07 160c-.16 3.75-1.71 7.29-3.34 10.68-1.52 3.14-3.11 6.25-4.8 9.31a34.2 34.2 0 0 1 -4.46 6.69 4.1 4.1 0 0 1 -1.53 1.19c-1.61.62-3.31-.64-4.45-1.94s-2.34-2.84-4.06-3a19.58 19.58 0 0 0 -2.16.14c-1.74 0-3.31-1-4.76-2-.34-.23-.44-1-.06-.81-2.58-1.66-5.51-3.39-8.51-2.78a25.92 25.92 0 0 0 -3.57 1.31 11.52 11.52 0 0 1 -2.54.56.89.89 0 0 1 -.64-.11 1 1 0 0 1 -.27-.63 47.88 47.88 0 0 1 -.43-10.83 5 5 0 0 1 .37-1.84 3.9 3.9 0 0 1 3.82-1.87 16.59 16.59 0 0 1 4.32 1.22c5.73 2 12 1.62 18 1.25a12.91 12.91 0 0 0 3.91-.64c2.11-.8 3.64-2.6 5.21-4.21a30.87 30.87 0 0 1 6.42-5.32c2.86-1.54 3.64 1.07 3.53 3.63z" fill="url(#c)"/><path d="m166.88 278.36c-.09 2.49-.1 5.23 1.51 7.14a9.49 9.49 0 0 0 4.19 2.48 63.46 63.46 0 0 0 40.12.93c3.4-1.06 6.83-2.49 9.2-5.14a4 4 0 0 0 1.18-2.34 5.59 5.59 0 0 0 -.87-2.67c-2.6-5.13-3-11.07-3.16-16.82-.5-15.33-.06-30.76 2.79-45.83s8.17-29.81 16.84-42.46c2.76 34.31.81 68.81-1.14 103.18 1.66-.45 3.08 1.57 2.9 3.28s-1.33 3.13-2.15 4.64c-2.55 4.69-2 10.37-1.79 15.7.17 3.44-.1 7.5-3 9.35-1.64 1-3.71 1.06-5.65 1.05l-70.83-.5c-1.93-39.11 6.71-78 7-117.18.06-8.6-.19-17.6 2.73-25.82 1.09-3.08 4.09-6 5.5-1.07 1.16 4.11-.52 10.71-.77 15q-1.81 30.94-3.19 61.91-.77 17.57-1.41 35.17z" fill="url(#d)"/><path d="m228.78 107.48c1.11-.6 2.51-1 3.6-.37a3.34 3.34 0 0 1 1.36 2.21c.69 3.19-1 6.42-2.93 9-1.14 1.48-2.61 3-4.47 3.09a2.18 2.18 0 0 1 -1.13-.18c-1-.51-1.17-1.91-1.09-3a57 57 0 0 1 1.17-6.62 6.24 6.24 0 0 1 3.49-4.13z" fill="#f1af8c"/><path d="m222.18 150.34c.72 3.73-7.56 15-11 16.58-4.34 2-9.94.82-14.6-.16a12.89 12.89 0 0 1 -8-5.84 16.79 16.79 0 0 1 -2.37-5.09 6.24 6.24 0 0 1 -.18-2.19 9.72 9.72 0 0 1 1-2.82 37.17 37.17 0 0 0 3.37-11.58c.38-3.19.42-6.63 2.29-9.24a13.7 13.7 0 0 1 3.63-3.23 90 90 0 0 1 12.66-7.3c3.55-1.68 8.94-3.89 12.76-1.64 1.31.77 1.62 2 1.7 3.49.07 1.1-.77 3.56-1.49 7.35-.09.48-.18 1-.26 1.5a56.54 56.54 0 0 0 .49 20.17z" fill="#f1af8c"/><path d="m222.36 128.55q-.29.82-.6 1.62c-6.81 17.29-25.5 31.48-33 30.78a.58.58 0 0 1 -.14 0 16.79 16.79 0 0 1 -2.37-5.09 6.24 6.24 0 0 1 -.18-2.19 9.72 9.72 0 0 1 1-2.82 37.17 37.17 0 0 0 3.37-11.58l31.56-10.6z" fill="url(#e)"/><path d="m173.62 110.43a5.29 5.29 0 0 0 .52 3.84c.39.7.93 1.3 1.29 2 .88 1.73.62 4 1.94 5.44a1.62 1.62 0 0 0 .91.54 1.43 1.43 0 0 0 1.42-1 4.26 4.26 0 0 0 .11-1.85c-.24-2.64-.44-5.29-.72-7.92a3.57 3.57 0 0 0 -3.25-3.17 2.41 2.41 0 0 0 -2.22 2.12z" fill="#f1af8c"/><path d="m177.49 158.74c-1.21 4.6-.17 9.47 1.18 14a26.68 26.68 0 0 0 11-6.16 3.47 3.47 0 0 1 3.5-.68c1.1.25 1.89.24 2.46 1.21a48.28 48.28 0 0 0 12.92 14.23 2.23 2.23 0 0 0 1.45.66 2.21 2.21 0 0 0 1.24-.85 93.83 93.83 0 0 0 15.68-24.15 3.66 3.66 0 0 0 .46-1.9 3.88 3.88 0 0 0 -1.1-1.9l-4.78-5.43a17 17 0 0 1 -7.26 13.88c-3.41 2.32-7.53 3.31-11.58 4.09-2.69.53-5.53 1-8.14.13-5.07-1.65-7.43-7.46-8.39-12.71a5.15 5.15 0 0 1 .53-2.74c-4.43-.31-8.15 4.41-9.17 8.32z" fill="#fff"/><path d="m183.62 160.39a1.48 1.48 0 0 0 -.9-.44 1.2 1.2 0 0 0 -.84.45 5.49 5.49 0 0 0 -1.16 2.5 34.64 34.64 0 0 0 -1.05 10.73 3.4 3.4 0 0 0 .51 1.86 2.35 2.35 0 0 0 2.15.78 6.8 6.8 0 0 0 2.24-.82q3.09-1.6 6.05-3.43a2.94 2.94 0 0 0 5.11 1l5.1 6.59a3.63 3.63 0 0 0 1.89 1.54 2.45 2.45 0 0 0 2.36-1.06 7 7 0 0 0 1-2.53 104.91 104.91 0 0 0 2.11-11.67 2 2 0 0 0 -.09-1.11c-.36-.68-1.32-.68-2.07-.56a26.34 26.34 0 0 0 -5.17 1.4 27.37 27.37 0 0 0 -2.6 1.15c-.57.29-1.84 1.34-2.43 1.29s-1.46-.95-2.18-1.1a12.71 12.71 0 0 0 -1.74-.06c-1.56-.13-2.79-1.23-3.9-2.24-1.5-1.4-2.82-2.97-4.39-4.27z" fill="#68e1fd"/><path d="m183.62 160.39a1.48 1.48 0 0 0 -.9-.44 1.2 1.2 0 0 0 -.84.45 5.49 5.49 0 0 0 -1.16 2.5 34.64 34.64 0 0 0 -1.05 10.73 3.4 3.4 0 0 0 .51 1.86 2.35 2.35 0 0 0 2.15.78 6.8 6.8 0 0 0 2.24-.82q3.09-1.6 6.05-3.43a2.94 2.94 0 0 0 5.11 1l5.1 6.59a3.63 3.63 0 0 0 1.89 1.54 2.45 2.45 0 0 0 2.36-1.06 7 7 0 0 0 1-2.53 104.91 104.91 0 0 0 2.11-11.67 2 2 0 0 0 -.09-1.11c-.36-.68-1.32-.68-2.07-.56a26.34 26.34 0 0 0 -5.17 1.4 27.37 27.37 0 0 0 -2.6 1.15c-.57.29-1.84 1.34-2.43 1.29s-1.46-.95-2.18-1.1a12.71 12.71 0 0 0 -1.74-.06c-1.56-.13-2.79-1.23-3.9-2.24-1.5-1.4-2.82-2.97-4.39-4.27z" fill="url(#f)"/><path d="m184 161a1.32 1.32 0 0 0 -.8-.39 1.1 1.1 0 0 0 -.75.4 4.89 4.89 0 0 0 -1 2.22 30.6 30.6 0 0 0 -.93 9.53 3 3 0 0 0 .45 1.65 2.09 2.09 0 0 0 1.91.69 5.76 5.76 0 0 0 2-.73c1.83-.94 3.62-2 5.37-3a2.61 2.61 0 0 0 4.54.87l4.53 5.85a3.2 3.2 0 0 0 1.68 1.37 2.18 2.18 0 0 0 2.1-.94 6.12 6.12 0 0 0 .88-2.25 92.92 92.92 0 0 0 1.88-10.36 1.75 1.75 0 0 0 -.08-1c-.32-.6-1.17-.61-1.84-.5a23.43 23.43 0 0 0 -4.59 1.25 23.81 23.81 0 0 0 -2.31 1c-.51.26-1.63 1.19-2.16 1.14s-1.29-.84-1.94-1a11.33 11.33 0 0 0 -1.54-.06 6.2 6.2 0 0 1 -3.46-2c-1.4-1.17-2.57-2.56-3.94-3.74z" fill="url(#g)"/><path d="m242.38 160.73c-1.4-.48-2.5-1.53-3.66-.62a11.78 11.78 0 0 0 -4.17 7.57c-1.21 7.27-7.26 123.12-7.67 130.38l-.4 7.27-.4 22.2s10.9-.81 10.49-2 4.44-147.73 6.86-155a26.8 26.8 0 0 1 2.06-4.72c1.34-2.36-.24-4-2.8-4.95z" fill="#68e1fd"/><path d="m163.79 158.28c-1.58 1.24-2.07 1.36-2.74 5.4-1.21 7.26-7.27 123.11-7.67 130.37l-.4 7.27-.41 22.2s10.9-.81 10.5-2 4.44-147.73 6.86-155c.65-2 3.15-6.48 3.51-7.83 1.14-4.32-8.44-1.32-9.65-.41z" fill="#68e1fd"/><path d="m242.38 160.73c-1.4-.48-2.5-1.53-3.66-.62a11.78 11.78 0 0 0 -4.17 7.57c-1.21 7.27-7.26 123.12-7.67 130.38l-.4 7.27-.4 22.2s10.9-.81 10.49-2 4.44-147.73 6.86-155a26.8 26.8 0 0 1 2.06-4.72c1.34-2.36-.24-4-2.8-4.95z" fill="url(#h)"/><path d="m163.79 158.28c-1.58 1.24-2.07 1.36-2.74 5.4-1.21 7.26-7.27 123.11-7.67 130.37l-.4 7.27-.41 22.2s10.9-.81 10.5-2 4.44-147.73 6.86-155c.65-2 3.15-6.48 3.51-7.83 1.14-4.32-8.44-1.32-9.65-.41z" fill="url(#i)"/><path d="m200.18 242-.18.29c-1.49 1.23-12.57 2.19-26 2.19-14.47 0-26.19-1.1-26.19-2.48s11.72-2.47 26.19-2.47 26.18 1.12 26.18 2.47z" fill="#68e1fd"/><path d="m200.18 242-.18.29c-1.49 1.23-12.57 2.19-26 2.19-14.47 0-26.19-1.1-26.19-2.48s11.72-2.47 26.19-2.47 26.18 1.12 26.18 2.47z" fill="url(#j)"/><path d="m380.86 302.36a106.1 106.1 0 0 1 -20.08 17.8c-32.8 22.24-75.12 23.77-114.7 21.69a837.19 837.19 0 0 1 -169.78-26.67c-14.28-3.76-23.59-6.8-31.58-12.82z" fill="#3f3d56"/><path d="m117.43 164.34a12.24 12.24 0 0 0 -4.67 2.95c-1.54 1.81-1.87 4.32-2.1 6.68-.79 8.22-1.21 24.71-1 33 0 .82 20 3.37 36.14 21 3.77 4.11 5-28.77 6.73-34.08a103.78 103.78 0 0 0 4.15-18.32c.46-3.63 2.8-14.74-2.13-14.48-2.73.15-6.76 2.93-9.29 4l-8.94 3.88c-6.17 2.65-12.69-7.31-18.89-4.63z" fill="#fff"/><path d="m70.2 181.11 29.56-17.72c3.95-2.37 7.91-4.75 11.61-7.5 2.66-2 5.33-4.37 6-7.61a3.73 3.73 0 0 0 -.5-3.1 4.41 4.41 0 0 0 -2.24-1.22c-7.61-2.21-15.71-.29-23.51 1.09-12.61 2.23-25.72 3.1-37.33 8.51-3.58 1.67-7 3.82-9.4 7a20.78 20.78 0 0 0 -2.95 6c-1.71 5.34-1.58 12 2.62 15.65 6.48 5.7 19.55 2.85 26.14-1.1z" fill="#f1af8c"/><path d="m66.76 133.52c-2.19 2.07-3.19 5.07-3.92 8a64.33 64.33 0 0 0 -1.6 9.35c-.17 1.75-.24 3.64.7 5.13a8 8 0 0 0 2.63 2.29c14.35 9 31.61 11.79 48.35 14.38l11.72 1.82a4 4 0 0 0 2.3-.1 3.41 3.41 0 0 0 1.35-1.34 16.67 16.67 0 0 0 2.55-6.28 9.06 9.06 0 0 0 -2.23 4.89 57 57 0 0 0 8.8-1.32 8.51 8.51 0 0 0 3.63-1.49 7.92 7.92 0 0 0 2.2-3.57c1.73-4.92 1.82-10.25 1.88-15.46a2.44 2.44 0 0 0 -1.5-2.68l-9.39-5.93a8.64 8.64 0 0 0 -1.83-1 9.53 9.53 0 0 0 -3.2-.3c-13 .07-25.33-5.52-38.24-6.86-5.11-.53-10.31-.4-15.31-1.59.5.12-1.37.56-1.44.56-.72 0-1.72-.57-2.54-.57a7.39 7.39 0 0 0 -4.91 2.07z" fill="#68e1fd"/><path d="m150.59 151.51a2.78 2.78 0 0 1 2.13 3.68 23.85 23.85 0 0 1 -3.63 11.39 1.67 1.67 0 0 1 -.59.59 1.6 1.6 0 0 1 -1 0 41.27 41.27 0 0 1 -5.6-1.39 1.62 1.62 0 0 1 -.53-.25c-.51-.4-.38-1.19-.22-1.82 1-3.79 1.09-7.73 2-11.5s4.58-1.68 7.44-.7z" fill="#68e1fd"/><path d="m66.76 133.52c-2.19 2.07-3.19 5.07-3.92 8a64.33 64.33 0 0 0 -1.6 9.35c-.17 1.75-.24 3.64.7 5.13a8 8 0 0 0 2.63 2.29c14.35 9 31.61 11.79 48.35 14.38l11.72 1.82a4 4 0 0 0 2.3-.1 3.41 3.41 0 0 0 1.35-1.34 16.67 16.67 0 0 0 2.55-6.28 9.06 9.06 0 0 0 -2.23 4.89 57 57 0 0 0 8.8-1.32 8.51 8.51 0 0 0 3.63-1.49 7.92 7.92 0 0 0 2.2-3.57c1.73-4.92 1.82-10.25 1.88-15.46a2.44 2.44 0 0 0 -1.5-2.68l-9.39-5.93a8.64 8.64 0 0 0 -1.83-1 9.53 9.53 0 0 0 -3.2-.3c-13 .07-25.33-5.52-38.24-6.86-5.11-.53-10.31-.4-15.31-1.59.5.12-1.37.56-1.44.56-.72 0-1.72-.57-2.54-.57a7.39 7.39 0 0 0 -4.91 2.07z" fill="url(#k)"/><path d="m149.86 157.56c1.93.88 5.39 8.41 6.19 10.37.47 1.13.68 2.36 1.11 3.5a19.22 19.22 0 0 0 2.32 4l1.75 2.51a11.94 11.94 0 0 1 2.2 6.57c0 2.37-.26 4.78.2 7.1.78 3.83 3.55 7 4.71 10.7 1.33 4.28.42 8.93 1 13.38.9 6.79 5.26 12.82 5.78 19.65a4.58 4.58 0 0 0 .59 2.46c.37.51 1 .84 1.33 1.35a4.2 4.2 0 0 1 .58 2l.62 5.83a5.61 5.61 0 0 1 -.11 2.58c-.61 1.62-2.62 2.35-4.33 2.06a11.37 11.37 0 0 1 -4.59-2.36 4.93 4.93 0 0 1 -1.81-1.93 4.82 4.82 0 0 1 -.17-2.14c.24-3.8.28-7.6.14-11.4a28.8 28.8 0 0 0 -1-7.52c-.63-2-1.62-3.8-2.36-5.72a24.58 24.58 0 0 1 -1.55-11.23c.23-2.41.82-4.8.69-7.21-.3-5.59-4.33-10.24-6-15.57-1.79-5.57-1.27-12.36-5.55-16.36a14.75 14.75 0 0 1 -2.16-2.09 2.41 2.41 0 0 1 -.15-2.8c.57-.77.95-6.8.57-7.73z" fill="#68e1fd"/><path d="m149.86 157.56c1.93.88 5.39 8.41 6.19 10.37.47 1.13.68 2.36 1.11 3.5a19.22 19.22 0 0 0 2.32 4l1.75 2.51a11.94 11.94 0 0 1 2.2 6.57c0 2.37-.26 4.78.2 7.1.78 3.83 3.55 7 4.71 10.7 1.33 4.28.42 8.93 1 13.38.9 6.79 5.26 12.82 5.78 19.65a4.58 4.58 0 0 0 .59 2.46c.37.51 1 .84 1.33 1.35a4.2 4.2 0 0 1 .58 2l.62 5.83a5.61 5.61 0 0 1 -.11 2.58c-.61 1.62-2.62 2.35-4.33 2.06a11.37 11.37 0 0 1 -4.59-2.36 4.93 4.93 0 0 1 -1.81-1.93 4.82 4.82 0 0 1 -.17-2.14c.24-3.8.28-7.6.14-11.4a28.8 28.8 0 0 0 -1-7.52c-.63-2-1.62-3.8-2.36-5.72a24.58 24.58 0 0 1 -1.55-11.23c.23-2.41.82-4.8.69-7.21-.3-5.59-4.33-10.24-6-15.57-1.79-5.57-1.27-12.36-5.55-16.36a14.75 14.75 0 0 1 -2.16-2.09 2.41 2.41 0 0 1 -.15-2.8c.57-.77.95-6.8.57-7.73z" fill="url(#l)"/><path d="m190.6 312.53c.16 1.6-5.11 3.51-15 3.36s-17.73-1.76-11.81-5.75c0 0 4.3-.17 6.55-2.88s4.63-7.51 4-16.13 1.6-14.38-12.93-31.15-13.57-18-13.57-18c0 1.38 11.72 2.48 26.19 2.48 13.44 0 24.52-1 26-2.19-1.17 2-8.23 13.82-11.16 18.64-3.19 5.28-13.26 14.22-11.5 29.71s3.51 17.89 7.67 19.17 5.4 1.15 5.56 2.74z" fill="#68e1fd"/><path d="m190.6 312.53c.16 1.6-5.11 3.51-15 3.36s-17.73-1.76-11.81-5.75c0 0 4.3-.17 6.55-2.88s4.63-7.51 4-16.13 1.6-14.38-12.93-31.15-13.57-18-13.57-18c0 1.38 11.72 2.48 26.19 2.48 13.44 0 24.52-1 26-2.19-1.17 2-8.23 13.82-11.16 18.64-3.19 5.28-13.26 14.22-11.5 29.71s3.51 17.89 7.67 19.17 5.4 1.15 5.56 2.74z" fill="url(#m)"/><path d="m297.34 270.49c.35 4.32.64 8.7-.21 12.95s-3 8.4-6.59 10.81-8.78 2.66-12.11-.11c-3.14-2.61-4-7-4.58-11.06l-4.28-27.92a33.52 33.52 0 0 1 -.51-9.93 16.88 16.88 0 0 1 9.9-12.78c1.86-.79 7.41-2 9.34-.83 2.72 1.59 4 8.71 4.77 11.59 2.48 8.89 3.52 18.11 4.27 27.28z" fill="#f1af8c"/><path d="m287.75 212.68c2.8 6.12 5.49 12.51 5.64 19.24a10.27 10.27 0 0 1 -.82 4.76 12.34 12.34 0 0 1 -3 3.48q-9.06 8.09-18.79 15.37a2.62 2.62 0 0 1 -2 .75c-.68-.15-7.26 3.74-7.6 3.14-5.09-8.87-6.2-19.42-6.73-29.63-.44-8.45-.56-16.9-.68-25.36-.09-6.62 6-17.81 6.74-24.39.23-1.92.07-6.59 2.28-7.17s4.67 3.9 5.59 5.17c7.73 10.77 13.87 22.6 19.37 34.64z" fill="#fff"/><path d="m272 238.81c-1.9-2.56-4.08-4.9-6-7.47-7.3-10-9.43-22.76-11.35-35l-2.94 20.22a21.42 21.42 0 0 1 -1.43 5.89c-1.63 3.6 4.78 29.26 7 31.67 1.85 2 2.19 5.58 4.8 6.27 1.66.43 3.29-.64 4.67-1.66 2.46-1.82 10.67-6 11.28-9 .89-3.85-6.03-7.54-6.03-10.92z" fill="url(#n)"/><path d="m230.08 275c-5.45 1-10.94 2.13-16.47 1.87-4.48-.22-8.86-1.36-13.33-1.84-6.36-.68-12.78 0-19.15.69-3.43.37-7.77 1.6-8.08 5-.1 1.08.27 2.17.08 3.23-.35 2-2.48 3.16-4.46 3.56s-4.1.32-5.93 1.19-3.22 3.2-2.14 4.91c.77 1.23 2.39 1.56 3.83 1.77l10.95 1.62c-1.7 1.84-.63 5 1.4 6.49s4.64 1.77 7.08 2.32c4.55 1 8.94 3 13.6 3 5.74 0 11-3.06 15.73-6.29 2.93-2 5.89-4.13 9.34-4.88a20.09 20.09 0 0 1 5.31-.3c13.76.65 26.89 6.84 40.67 6.88a35.81 35.81 0 0 0 14.93-3c5.38-2.43 10.2-6.91 11.4-12.69 2.88-13.91-13.91-14.57-23.27-15.69-13.82-1.61-27.84-.31-41.49 2.16z" fill="#f1af8c"/><path d="m268.39 263.28v58.36a9.65 9.65 0 0 1 -9.65 9.64h-12.59a9.65 9.65 0 0 1 -9.64-9.64v-57.64a7.43 7.43 0 0 1 7.42-7.43 1.63 1.63 0 0 0 1.63-1.62v-34.72h13.19v34.67a1.63 1.63 0 0 0 1.63 1.62h1.25a6.76 6.76 0 0 1 6.76 6.76z" fill="#68e1fd"/><path d="m268.39 263.28v58.36a9.65 9.65 0 0 1 -9.65 9.64h-12.59a9.65 9.65 0 0 1 -9.64-9.64v-57.64a7.43 7.43 0 0 1 7.42-7.43 1.63 1.63 0 0 0 1.63-1.62v-34.72h13.19v34.67a1.63 1.63 0 0 0 1.63 1.62h1.25a6.76 6.76 0 0 1 6.76 6.76z" fill="url(#o)"/></g><rect fill="#68e1fd" height="4.85" rx="2.43" width="17.38" x="241.8" y="207.71"/><rect fill="url(#p)" height="4.85" rx="2.43" width="17.38" x="241.8" y="207.71"/><path d="m105.12 171a5.54 5.54 0 0 1 7.27-2.38 6.44 6.44 0 0 1 3.07 7.26 3.49 3.49 0 0 1 -.78 1.53 4.69 4.69 0 0 1 -1.41.89 11.09 11.09 0 0 1 -3.55 1.22c-4.52.48-6.16-5.14-4.6-8.52z" fill="#f1af8c" transform="translate(-1.84 -8.57)"/><path d="m98.38 136.29a3.44 3.44 0 0 0 -.4 3.15c.73 1.38 2.81 1.34 4.14.52s2.28-2.16 3.6-3c2.61-1.65 3.1-4.4-.49-5.7-3.08-1.11-5.62 2.74-6.85 5.03z" fill="#f1af8c" transform="translate(-1.84 -8.57)"/><path d="m107.24 136.87c-.47 1.15-.78 2.58 0 3.52a2.86 2.86 0 0 0 2.23.83 6.28 6.28 0 0 0 4.51-1.91 3.38 3.38 0 0 1 1-.88c.76-.32 1.66.09 2.45-.16a2.43 2.43 0 0 0 1.37-2.25c.2-2.51-2.1-6.34-4.89-6.51-3.13-.2-5.69 4.98-6.67 7.36z" fill="#f1af8c" transform="translate(-1.84 -8.57)"/><path d="m119.87 134.89a15.59 15.59 0 0 0 -3.73 5.94 1.89 1.89 0 0 0 -.07 1.47 1.69 1.69 0 0 0 1.28.73 5.26 5.26 0 0 0 4.8-1.79c.53-.64 1-1.46 1.83-1.6s1.45.37 2.17.22a1.67 1.67 0 0 0 1.17-1.36 4.34 4.34 0 0 0 -.17-1.89c-1.02-4.1-4.38-4.61-7.28-1.72z" fill="#f1af8c" transform="translate(-1.84 -8.57)"/><path d="m131.44 137.13a11.76 11.76 0 0 0 -2.12 3.56 4.06 4.06 0 0 0 .64 3.93 3.57 3.57 0 0 0 3.32.94 5.49 5.49 0 0 0 3-1.89 5.13 5.13 0 0 0 1.36-3.44 3.08 3.08 0 0 0 -2.08-2.86c-1.23-.37-3.22-1.43-4.12-.24z" fill="#f1af8c" transform="translate(-1.84 -8.57)"/><path d="m200.18 242a.39.39 0 0 1 -.18.29z" fill="url(#q)" transform="translate(-1.84 -8.57)"/><path d="m155.61 241.49 9.8 11.61 8.71 12.83 16.7-24.2z" fill="#68e1fd"/><path d="m174.12 265.93 16.7-24.2-35.21-.24" fill="url(#r)"/><path d="m181.18 127.91a14.11 14.11 0 0 0 2 5 15.75 15.75 0 0 0 2.3 2.39l4.1 3.71c3.82 3.47 8.26 7.16 13.41 6.8a13.87 13.87 0 0 0 5-1.48c6.53-3.15 11.38-9.14 14.33-15.77a64.09 64.09 0 0 0 4.82-21.11 117.25 117.25 0 0 0 .44-14.54c-.14-2.86-.55-5.9-2.45-8.05a12.79 12.79 0 0 0 -5.13-3.14c-8.06-3.07-17.18-4.59-25.26-1.6-6.2 2.29-11.85 2.56-14.86 8.38-1.51 2.91-1.53 9.78-1 13 .64 3.92.19 8.11.4 12.07a76.32 76.32 0 0 0 1.9 14.34z" fill="#f1af8c" transform="translate(-1.84 -8.57)"/><path d="m174.53 80.64a2 2 0 0 1 1.79-2.64l4.52-.94a24.92 24.92 0 0 1 4.07-9.64 18.49 18.49 0 0 1 3.58-4.15 17.68 17.68 0 0 1 6.95-3.17 33.1 33.1 0 0 1 25.95 4.53c2.45 1.64 4.71 3.62 7.41 4.81s6.08 1.44 8.44-.33a15.41 15.41 0 0 1 -6.81 11.3 4.09 4.09 0 0 1 2.57 3.32c.24 1.45-.32 2.9-.42 4.37-.87 13.43-3.72 18.57-6.31 23.77.3-5.32.13-18.36-2.74-22.85a7.77 7.77 0 0 0 -2.87-2.85 10 10 0 0 0 -3.64-.8c-7.26-.66-14.54-1.33-21.83-1.3a38.07 38.07 0 0 0 -7.83.68 9.07 9.07 0 0 0 -3.69 1.54 4.14 4.14 0 0 0 -1.67 3.49c.11 1.17.87 2.18 1.15 3.33.44 1.81-.34 3.67-1 5.4-1.17 4.11-1.9 10.13-3 14.28-2.66-9.6-4.15-22.25-4.62-32.15z" fill="#3f3d56" transform="translate(-1.84 -8.57)"/><path d="m143 223.24s-5.24-22.76-10.4-28.24-19-11.29-19-11.29l-.36 21.14s27.01 13.73 29.76 18.39z" fill="url(#s)" transform="translate(-1.84 -8.57)"/><path d="m150.71 151.63a2.79 2.79 0 0 1 2.14 3.68 24 24 0 0 1 -3.64 11.4 1.64 1.64 0 0 1 -.59.58 1.6 1.6 0 0 1 -1 0 41.27 41.27 0 0 1 -5.6-1.39 1.72 1.72 0 0 1 -.53-.25c-.51-.4-.38-1.19-.22-1.82 1-3.79 1.09-7.73 2-11.5s4.58-1.68 7.44-.7z" fill="url(#t)" transform="translate(-1.84 -8.57)"/><path d="m239.83 253.87h26.46v50.98h-26.46z" fill="url(#u)"/></svg>