<svg enable-background="new 0 0 128 128" viewBox="0 0 128 128" xmlns="http://www.w3.org/2000/svg" xmlns:xlink="http://www.w3.org/1999/xlink"><linearGradient id="a" gradientUnits="userSpaceOnUse" x1="75.9637" x2="73.4107" y1="5.1568" y2="13.3114"><stop offset="0" stop-color="#ff3776"/><stop offset="1" stop-color="#ffdee7"/></linearGradient><linearGradient id="b" gradientUnits="userSpaceOnUse" x1="42.4689" x2="50.6109" y1="15.8336" y2="23.6566"><stop offset="0" stop-color="#93d919"/><stop offset="1" stop-color="#f2f45d"/></linearGradient><linearGradient id="c" gradientUnits="userSpaceOnUse" x1="63.3" x2="63.3" y1="113.3001" y2="124.1001"><stop offset="0" stop-color="#fff"/><stop offset=".1315" stop-color="#f3f3f3"/><stop offset=".4543" stop-color="#dbdbdb"/><stop offset=".7523" stop-color="#ccc"/><stop offset="1" stop-color="#c7c7c7"/></linearGradient><linearGradient id="d" gradientUnits="userSpaceOnUse" x1="63.2" x2="63.2" y1="22.1751" y2="117.3401"><stop offset="0" stop-color="#f6f9fe"/><stop offset=".9949" stop-color="#c5cfd0"/></linearGradient><linearGradient id="e" gradientUnits="userSpaceOnUse" x1="79.3209" x2="100.3989" y1="17.6845" y2="15.3275"><stop offset="0" stop-color="#ff6815"/><stop offset=".9949" stop-color="#ff9147"/></linearGradient><linearGradient id="f" gradientUnits="userSpaceOnUse" x1="63.2239" x2="63.2239" y1="30.0091" y2="89.8111"><stop offset="0" stop-color="#ffe12e"/><stop offset=".5452" stop-color="#ff7300"/><stop offset=".9967" stop-color="#f00"/></linearGradient><linearGradient id="g" gradientUnits="userSpaceOnUse" x1="51.4475" x2="51.4475" y1="23.6001" y2="86.4001"><stop offset="0" stop-color="#f6f9fe"/><stop offset=".9948" stop-color="#fff" stop-opacity="0"/></linearGradient><path d="m76.6 3.5s-.1 1.3-.4 3.2c-.2.9-.4 2-.7 3.2s-.8 2.4-1.1 3.6c-1.5 4.9-3.1 9.8-3.1 9.8h-.1s1.1-5 2.3-10c.3-1.2.6-2.5.8-3.7.3-1.2.7-2.2 1-3.1.7-1.8 1.3-3 1.3-3z" fill="#736357"/><path d="m76.2 5.2-15 2.2 3.6 2.3 6.3 2.8 5.8 1.7 5.6.9 4.6-.6z" fill="url(#a)"/><g fill="none" stroke="#ff3f7b" stroke-miterlimit="10" stroke-width=".6097"><path d="m60.1 7.4 15.9-2.2"/><path d="m64.1 10.6 12-5.4"/><path d="m70.4 13.7 5.7-8.5"/><path d="m77.1 15.3-.9-9.9"/><path d="m83.4 15.9-7.2-10.7"/><path d="m87.6 15.5-11.4-10.5"/></g><path d="m76.1 5.9 8.3 7.5.4.3-1.8.3c-.1 0-.2.1-.3.1h-.1l-5.1-.8c-.1 0-.1 0-.2 0h-.1c-.1 0-.1-.1-.2-.1l-2.3-.7c-.1 0-.2 0-.3 0s-.2 0-.2 0c-.1-.1-.3-.2-.4-.3l-1.8-.4c-.1 0-.2.1-.3.1-.1 0-.1-.3-.2-.3l-5.2-2.4c-.3 0-.4-.2-.6-.2-.1 0-.2-.1-.3-.2h-.1l-1.8-1.2zm.4-2.4s-.3.5-.7 1.4l-15.8 2.2.1.6 1.3-.2 3.4 2.2.2.1-1.1.5.2.6 1.6-.7 5.2 2.3-.8 1.1.5.3.8-1.3 1.8.6v.1c-1.2 5-2.3 10-2.3 10h.1s1.6-4.9 3.1-9.8c0 0 0 0 0-.1l2.3.7.1 1.2.6-.1-.1-1 5.1.8.7 1 .5-.3-.2-.7 3-.4 1.2 1.1.4-.4-.9-.8h.1l-1.9-1.8-8.5-7.8c.1-.9.2-1.4.2-1.4z" fill="#424242" opacity=".2"/><path d="m60.6 11.1-20.3 24.9s-7.8-10.6 1.1-20.4 19.2-4.5 19.2-4.5z" fill="#057a64"/><path d="m60.4 11.4-19.8 24.3s-7-9.4 1.9-19.3 17.9-5 17.9-5z" fill="url(#b)"/><path d="m54.8 13.9c.9-1.1 2.5-1.3 3.6-.4l-5.1 6.4s.7-4.9 1.5-6z" fill="#f1f41c"/><path d="m41.8 30.2c.9-1.1 5.5-2.7 5.5-2.7l-5.2 6.3c-1.1-.9-1.3-2.5-.3-3.6z" fill="#f1f41c"/><path d="m42.9 20.2c-1.1-.9-1.3-2.5-.4-3.6s2.5-1.3 3.6-.4 2.8 5.5 2.8 5.5-4.9-.6-6-1.5z" fill="#f1f41c"/><path d="m42.4 22c-1.4.2-2.4 1.4-2.2 2.8s1.4 2.4 2.8 2.2 5.3-3.2 5.3-3.2-4.5-2-5.9-1.8z" fill="#f1f41c"/><path d="m47.7 15.4c-.2-1.4.8-2.7 2.2-2.8s2.7.9 2.8 2.2-1.9 5.8-1.9 5.8-3-3.8-3.1-5.2z" fill="#f1f41c"/><path d="m42.4 22c-1.4.2-2.4 1.4-2.2 2.8s1.4 2.4 2.8 2.2 5.3-3.2 5.3-3.2-4.5-2-5.9-1.8z" fill="#f1f41c"/><path d="m53.9 11.6c1.3 0 2.5.2 3.4.4l-11.6 14.3c-.1.1-.1.2-.2.2l-1.9 2.3-3 3.7c-1.5-3.3-3.2-9.6 2.3-15.6 3.2-3.5 6.9-5.3 11-5.3m0-2c-3.6 0-8.2 1.2-12.4 5.9-9 9.8-1.1 20.4-1.1 20.4l.3-.3 4.5-5.6 2.1-2.6 13.1-16.1.3-.3c-.1.1-2.9-1.4-6.8-1.4z" fill="#424242" opacity=".2"/><path d="m82.9 119.4c0 2.5-8.8 4.5-19.6 4.5s-19.6-2-19.6-4.5 8.8-6.1 19.6-6.1 19.6 3.5 19.6 6.1z" fill="url(#c)"/><path d="m80.6 54.2c-2.8-10.2-2.8-26.5-2.8-26.5h-.2c-.5-.9-6.7-1.9-14.2-1.9s-13.8.2-14.3 1.2h-.1s0 16.6-2.8 26.9c-2.3 8.5-5.3 18.6.2 26.6 3.8 5.5 11.1 9.7 17.9 9.4 3.4-.2 6.8-1.8 9.7-3.5 2.8-1.6 5.2-3.7 6.9-6.5 4.9-7.9 1.9-17.4-.3-25.7z" fill="none"/><path d="m81.4 52.8c-3.7-13.5-2.2-31-2.2-31s-7.1 1.9-16 1.9c-8.7 0-15.8-.7-16.1-1.9.1 1.1 1.5 18.4-2.1 31.4-3.7 13.5-8 22.9 4.4 33.9s11.5 9.4 11.4 14.6-.9 11.3-1.4 13.1 2.2 2.3 3.8 2.3 4.3-.5 3.8-2.3-1.3-7.9-1.4-13.1-1-3.8 11.4-14.8 8.1-20.6 4.4-34.1z" fill="url(#d)"/><path d="m63.2 19.8c-8.9 0-16.1 1-16.1 2.2v.1c.2 1.2 7.3 2.2 16.1 2.2 8.9 0 16.1-1 16.1-2.2 0-1.3-7.2-2.3-16.1-2.3z" fill="#d0d6d2" opacity=".8"/><path d="m63.2 21.8c7.3 0 12.1.7 13.9 1.2-.3 4.4-.9 18.8 2.3 30.4.3 1.2.7 2.4 1 3.6 3.3 11.6 5.5 19.3-4.8 28.5-1.3 1.2-2.5 2.2-3.5 3.1-8.3 7.3-8.8 7.7-8.6 12.3v.9c.1 4.4.7 9.3 1.2 12 .2.9.9 1.6 1.8 1.6 7.8.5 12.7 2.7 14 3.8-1.7 1-7.6 2.6-17.3 2.6s-15.7-1.6-17.3-2.6c1.4-1.1 6.2-3.3 13.9-3.8.9-.1 1.7-.7 1.8-1.7.5-2.6 1-7.5 1.1-12 0-.3 0-.6 0-.9.2-4.4-.4-5-7.7-11.3-1.2-1.1-2.7-2.4-4.4-3.9-10.3-9.1-8.1-16.7-4.8-28.2.3-1.2.7-2.4 1-3.7 3.2-11.6 2.6-26.1 2.3-30.8 1.9-.4 6.8-1.1 14.1-1.1m0-2c-8.6 0-15.5.9-16 2.1 0 0 0 0 0-.1v.1.1s0 0 0 .1c.2 2.5 1.3 18.7-2.1 31.1-3.7 13.5-8 22.9 4.4 33.9s11.5 9.4 11.4 14.6c-.1 4.2-.6 9.1-1.1 11.7-9.1.7-16.1 3.7-16.1 5.9 0 2.5 8.8 4.5 19.6 4.5s19.6-2 19.6-4.5c0-2.2-7-5.3-16.2-5.9-.5-2.6-1-7.4-1.1-11.7-.1-5.1-1-3.7 11.4-14.7s8.1-20.6 4.4-34.1c-3.4-12.4-2.4-28.1-2.2-30.7.1-.1.1-.2.1-.2 0-1.2-7.2-2.2-16.1-2.2z" fill="#424242" opacity=".2"/><path d="m77 27.8c-.5-1-6.5-1.8-13.8-1.8s-13.2.9-13.7 1.8v.1c0 1 6.2 1.9 13.8 1.9s13.7-.8 13.7-1.8c0-.1 0-.1 0-.2z" fill="#fffa99"/><path d="m49.1 27.7v.1c0 1 6.4 1.7 14.3 1.7 1.3 0 2.5 0 3.7-.1 1.4 0 2.8-.1 4-.2 4-.3 6.6-.8 6.6-1.5v-.1c-.3-.5-2.3-.9-5.4-1.2-.2.4-.3.9-.6 1.5-.1.2-.3.4-.5.5-.8.3-1.8.3-2.6.1-.5-.1-.8-.6-.6-1.1l.5-1.3c-1.6-.1-3.3-.1-5-.1-7.7.1-13.9.8-14.4 1.7z" fill="none"/><path d="m71.6 19.5c-1.3 1.5-1.8 2.9-1.8 2.9l-.7 1.7c1.4-.1 2.7-.2 3.9-.3.3-.7.7-1.2 1.1-1.7-1-.6-2.1-1.4-2.5-2.6z" fill="#ff6815"/><path d="m73.9 17.7c-.4.2-.8.5-1.2.8.6 1.1 1.1 2.3 2.2 2.9.3-.2.6-.4.8-.6-.9-.8-1.5-2-1.8-3.1z" fill="#ff6815"/><path d="m73.9 17.7c.3 1.2.9 2.3 1.9 3.1.3-.2.7-.4.9-.5-.8-.8-1.3-2.1-1.4-3.3-.5.2-1 .4-1.4.7z" fill="#c75110"/><path d="m76.3 16.6c.2 1.3.6 2.3 1.4 3.2.2-.1.3-.1.4-.1s.1 0 .1 0h.2c-.7-.9-.8-2.1-1.1-3.3-.3 0-.7.1-1 .2z" fill="#c75110"/><path d="m100.9 16.2s.2-2.7-1.1-2.6c-3.3.4-15.8 1.6-21.7 2.6-.2 0-.5.1-.7.1.3 1.2.4 2.4 1.1 3.3l21.7-2.5c.4 0 .7-.4.7-.9z" fill="url(#e)"/><path d="m75.3 17c.2 1.2.6 2.4 1.4 3.3.4-.2.8-.3 1-.4-.8-.9-1.3-1.9-1.4-3.2-.4 0-.7.1-1 .3z" fill="#ff6815"/><path d="m72.7 18.4c-.4.4-.8.7-1.2 1.1.5 1.1 1.5 2 2.6 2.5.2-.3.5-.5.8-.7-1.1-.5-1.6-1.8-2.2-2.9z" fill="#c75110"/><path d="m69.1 24.1-.8 2.1-.5 1.3c-.2.5.1 1 .6 1.1.8.2 1.8.2 2.6-.1.2-.1.4-.3.5-.5.2-.6.4-1.1.6-1.5.4-1.2.6-1.9.9-2.6 0 0 0 0 0-.1-1.1.1-2.4.2-3.9.3z" fill="#ff9961"/><path d="m99.7 14.7c.1.3.2.9.2 1.5l-21.5 2.5h-.2c-.1 0-.2 0-.3.1-.1 0-.2.1-.5.2-.4.1-.7.3-1.1.5s-.7.4-1 .6c-.4.2-.7.4-.9.6-.3.3-.6.5-.9.8-.4.5-.8 1-1.1 1.5-.6.1-1.1.1-1.7.2l.1-.3s0 0 0-.1c0 0 .4-1.2 1.5-2.5.3-.3.7-.7 1-1 .3-.2.7-.5 1.1-.7s.8-.4 1.3-.6c.3-.1.6-.2.9-.3s.6-.2 1-.3c.2 0 .4-.1.7-.1 5.6-.9 17.3-2.1 21.1-2.5zm.2-1c-3.4.3-15.9 1.5-21.8 2.5-.2 0-.5.1-.7.1-.4.1-.7.2-1.1.3-.3.1-.7.2-1 .4-.5.2-1 .4-1.4.7-.4.2-.8.5-1.2.8-.4.4-.8.7-1.2 1.1-1.3 1.5-1.8 2.9-1.8 2.9l-.7 1.7c1.4-.1 2.7-.2 3.9-.3.3-.7.7-1.2 1.1-1.7.2-.3.5-.5.8-.7s.6-.4.8-.6c.3-.2.7-.4.9-.5.4-.2.8-.3 1-.4s.3-.1.4-.1.1 0 .1 0h.2l21.7-2.5c.4 0 .8-.5.7-.9.3-.3.4-2.8-.7-2.8z" fill="#424242" opacity=".2"/><path d="m71 29.3c-1.2.1-2.5.2-4 .2-1.2 0-2.4.1-3.7.1-7.9 0-13.1-.7-13.8-1.6 0 0 .5 15.2-2.7 26.7-2.4 8.5-6.3 17.8-.6 26.1 3.8 5.5 11.2 9.5 18 9.2 3.4-.2 6.8-1.8 9.7-3.5 2.8-1.6 5.1-3.8 6.8-6.6 4.9-7.9 1.5-17-1-25.2-3.6-12-2.8-26.4-2.9-26.3-.9.4-1.9.6-5.8.9z" fill="url(#f)"/><path d="m51.7 23.6s3.2 15.9.2 24.8-8.6 23.9-4.4 30.6 8.7 7.4 8.7 7.4-4.2-8.1-2.2-21.5c2-13.3 4-32.9 2.2-40.9z" fill="url(#g)"/></svg>