<svg enable-background="new 0 0 512 512" viewBox="0 0 512 512" xmlns="http://www.w3.org/2000/svg"><path d="m478.251 307.661c-7.935-.173-13.957 3.19-18.637 8.436-9.362 82.043-48.069 164.903-200.115 164.903-149.838 0-193.879-86.52-205.751-165.127-4.652-5.117-10.612-8.383-18.432-8.212-40.275.88-41.762-67.195-1.487-68.075 20.862 0 44.929-52.357 92.864-71.393l-22.105 84.631-6.175 4.042h316.743l-6.175-4.042-22.105-84.631c47.935 19.036 72.002 71.393 92.864 71.393 40.273.879 38.786 68.954-1.489 68.075z" fill="#2b3b47"/><path d="m462.446 256.865c0 63.313-92.393 114.639-206.366 114.639s-206.365-51.326-206.365-114.639 92.393-114.639 206.366-114.639 206.365 51.326 206.365 114.639z" fill="#597b91"/><path d="m437.204 271.745c0 50.78-81.092 91.946-181.123 91.946s-181.124-41.165-181.124-91.946 81.092-91.946 181.123-91.946 181.124 41.166 181.124 91.946z" fill="#f9e7c0"/><path d="m263.988 174.248c7.694-23.254-7.551-20.958-20.198 3.705-.165-.023-.326-.043-.485-.061 7.171-23.129-9.621-19.125-22.351 8.522 7.644-21.068-5.303-20.509-18.356-4.583 2.765-16.364-11.652-11.24-23.151 12.879-5.273-.923-7.484 2.209-4.319 8.938-.857.319-1.737.668-2.642 1.054-16.687-13.402-27.58-9.484-14.473 8.089-.079.054-.159.11-.238.165-19.602-19.687-35.078-17.99-22.464.257-.228.069-.46.147-.698.233-18.554-17.695-32.673-15.849-21.198 1.284-3.157.23-6.891.772-11.315 1.714-32.527 6.922-20.605 21.051 11.611 15.529-14.832 19.492.331 22.274 20.306 3.059.148.075.294.146.439.216-14.297 19.544 2.885 21.213 23.907-.797-14.074 17.441-1.648 21.119 15.871 10.298-8.81 16.192 11.042 14.203 32.393-11.693 6.138-.078 13.903-1.226 22.825-3.972 0 0 2.089-3.822.849-7.071 10.459.333 11.609-6.721-4.205-16.684 26.408 13.881 41.983 7.255 23.56-6.319.193-.14.388-.289.584-.447 23.296 10.706 36.05 4.373 19.631-8.102 2.911-1.244 6.266-2.969 10.144-5.297 28.513-17.117 12.647-26.606-16.027-10.916zm-119.913 49.586c.019-.024.038-.048.056-.072.084.087.165.167.248.253-.03.029-.06.058-.091.088-.071-.09-.142-.18-.213-.269zm23.192.061c.085-.114.171-.223.256-.338 0 0-.001-.006-.002-.014.248.241.492.471.735.7-.146.124-.292.249-.438.376-.183-.244-.367-.484-.551-.724zm47.939-25.112c.253.171.504.338.756.505-.044.135-.089.267-.132.402 0 0 .003.005.006.013-.313-.147-.618-.285-.923-.423.098-.164.196-.329.293-.497zm22.421-7.157c.096.061.193.124.289.184-.01.029-.02.057-.03.086-.107-.055-.21-.105-.317-.158.019-.037.038-.075.058-.112zm-25.586 26.609c-1.544-1.239-3.389-2.543-5.544-3.901 2.668 1.402 5.226 2.596 7.649 3.594-.674.087-1.379.191-2.105.307z" fill="#2aba34"/><path d="m336.375 200.704c42 0 42 42.645 0 42.645s-42-42.645 0-42.645zm31.5 92.364c42 0 42-42.645 0-42.645s-42 42.645 0 42.645zm-21.5 41.65c42 0 42-42.645 0-42.645s-42 42.645 0 42.645z" fill="#f9f9f7"/><path d="m320.68 281.5c-1.64 2.188-4.63 2.769-6.947 1.451l-.433-.246s-.888-.504-2.442-1.385c-.799-.413-1.811-.868-2.936-1.418-1.177-.476-2.493-1.037-3.969-1.55-1.496-.476-3.088-1.037-4.844-1.422-1.719-.494-3.596-.754-5.496-1.115-.962-.105-1.94-.213-2.929-.321-.983-.14-1.987-.159-2.993-.185-.502-.017-1.006-.034-1.511-.051l-.757-.027-.758.038c-1.006.045-2.016.09-3.026.135-1.004.077-1.996.25-2.983.362l-1.474.186c-.481.107-.96.214-1.438.321-.951.219-1.899.394-2.819.627-.902.287-1.794.571-2.67.85-.436.141-.872.262-1.295.411-.413.178-.822.354-1.226.528-.806.34-1.594.672-2.362.996-1.494.738-2.849 1.546-4.126 2.205-1.114.751-2.065 1.436-2.949 2.007-.22.144-.432.283-.637.417-.256.209-.502.41-.739.603-.474.386-.909.742-1.302 1.062-1.572 1.283-2.471 2.016-2.471 2.016-4.288 3.498-10.6 2.858-14.098-1.43s-2.858-10.6 1.43-14.098c.311-.254.634-.486.965-.697l.058-.035s.982-.616 2.702-1.693c.43-.269.906-.567 1.424-.892.259-.162.529-.331.808-.506.365-.195.743-.398 1.134-.607 1.567-.823 3.349-1.774 5.275-2.693 1.901-.734 3.929-1.588 6.122-2.329 1.116-.315 2.262-.638 3.434-.969.584-.161 1.175-.324 1.771-.488.604-.132 1.222-.233 1.839-.35 1.235-.221 2.49-.445 3.76-.673 1.277-.16 2.576-.249 3.877-.37.65-.055 1.303-.11 1.957-.165.655-.004 1.312-.007 1.97-.011 1.314.01 2.632-.031 3.94.034 1.303.105 2.607.211 3.905.316l.969.082.957.149c.635.101 1.269.202 1.9.302 1.261.197 2.508.391 3.714.709 1.211.29 2.407.559 3.571.863.27.085.535.166.802.249-1.159-1.145-2.493-2.211-3.812-3.354-.779-.574-1.57-1.158-2.372-1.749-.779-.615-1.638-1.135-2.495-1.664l-1.281-.804-.641-.403-.674-.348c-.893-.466-1.789-.935-2.685-1.403-.906-.438-1.851-.787-2.761-1.186l-1.368-.58c-.47-.149-.938-.297-1.404-.445-.932-.289-1.84-.614-2.752-.874-.924-.205-1.838-.407-2.736-.606-.447-.097-.886-.212-1.326-.296-.446-.054-.888-.107-1.326-.159-.868-.111-1.716-.22-2.543-.325-1.663-.112-3.241-.095-4.675-.166-1.341.09-2.507.204-3.558.254-.262.014-.516.027-.761.04-.326.052-.64.102-.942.15-.604.096-1.158.185-1.659.264-2.004.319-3.149.501-3.149.501-5.465.87-10.601-2.854-11.471-8.319s2.854-10.601 8.319-11.471c.397-.063.792-.102 1.184-.118l.068-.001s1.159-.039 3.186-.106c.507-.017 1.068-.036 1.679-.056.306-.01.623-.021.953-.032.414.014.843.029 1.286.045 1.769.076 3.787.149 5.914.322 2.013.321 4.195.601 6.463 1.062 1.123.288 2.277.585 3.456.888.586.154 1.178.31 1.777.468.589.189 1.173.412 1.766.621 1.178.429 2.376.866 3.589 1.308 1.184.503 2.353 1.079 3.538 1.628.589.279 1.181.56 1.775.841l1.709.98c1.131.669 2.291 1.295 3.39 2.009 1.074.746 2.148 1.492 3.218 2.235l.796.558.753.609c.499.407.996.812 1.491 1.216.991.804 1.972 1.598 2.855 2.479.901.859 1.801 1.693 2.654 2.54 1.624 1.782 3.236 3.447 4.561 5.206 1.408 1.681 2.564 3.414 3.651 4.983 1.056 1.596 1.931 3.128 2.714 4.469.714 1.401 1.352 2.599 1.831 3.621.887 2.091 1.394 3.286 1.394 3.286.2.472.323.957.383 1.442 1.471 1.103 2.304 1.727 2.304 1.727 2.377 1.78 2.859 5.146 1.08 7.52z" fill="#ff473e"/><path d="m233.776 342.505c-31.657-8.718-11.5-76.618 23.59-72.893s97.201 106.158-23.59 72.893zm-28.141-64.605c14.777-32.045-64.199-57.756-82.605-30.564-70.229 103.753 67.829 62.609 82.605 30.564z" fill="#e2af8d"/><path d="m177.42 346.598c-31.657-8.718-11.5-76.618 23.59-72.893 35.091 3.725 97.201 106.158-23.59 72.893z" fill="#d19878"/><path d="m234.442 12.492s.598.061 1.718.173c1.137.188 2.681.083 5.002 1.036 1.12.41 2.489.777 3.638 1.569 1.195.747 2.641 1.431 3.787 2.639.614.57 1.247 1.158 1.9 1.763.645.62 1.119 1.401 1.708 2.141 1.245 1.463 2.025 3.278 2.933 5.158 1.481 3.834 2.559 8.36 2.036 13.19-.465 4.781-2.074 9.934-5.502 14.325-3.307 4.462-8.59 7.811-14.15 9.086l-2.098.516c-.257.1-1.064.232-1.57.348l-1.734.358-1.275.414c-1.674.471-3.555 1.401-5.182 2.309-3.27 1.957-6.125 4.627-8.11 7.923-1.963 3.282-3.443 6.94-3.962 10.723-.555 3.756-.534 7.54.186 11.006.722 3.459 1.94 6.631 3.539 9.303 1.621 2.656 3.553 4.838 5.52 6.539 1.96 1.726 4.001 2.862 5.705 3.794 1.76.803 3.191 1.464 4.219 1.754 1.018.36 1.561.552 1.561.552l.139.049c.737.261 1.124 1.07.863 1.806-.215.608-.804.977-1.417.941 0 0-.624-.036-1.794-.105-1.18-.048-2.906-.271-5.095-.773-2.145-.609-4.85-1.376-7.607-3.06-2.782-1.602-5.747-3.893-8.288-7.044-5.164-6.185-8.644-15.737-7.652-25.966.456-5.084 1.897-10.381 4.742-15.143 2.761-4.789 6.917-8.969 11.773-11.938 2.545-1.365 4.978-2.515 7.882-3.302l2.133-.581 1.741-.322c.647-.128 1.008-.167 1.888-.369l1.321-.32c3.508-.789 6.694-2.315 8.864-4.96 2.195-2.562 3.705-5.741 4.388-9.03.689-3.312.368-6.595-.249-9.525-.461-1.416-.834-2.841-1.544-4.014-.327-.598-.549-1.273-.937-1.793-.395-.525-.778-1.034-1.15-1.528-.66-1.104-1.681-1.711-2.44-2.523-.773-.865-1.629-1.238-2.372-1.748-1.361-1.071-3.126-1.577-4.131-1.988-1.046-.416-1.604-.638-1.604-.638-.732-.292-1.09-1.122-.798-1.854.239-.605.857-.953 1.475-.891zm-82.477 52.819c-.645-1.013-1.991-1.311-3.003-.666 0 0-.4.255-1.149.732-.755.564-1.834.973-3.259 2.293-.7.63-1.476 1.328-2.32 2.088-.73.825-1.518 1.715-2.361 2.667-1.553 2.024-3.098 4.489-4.462 7.392-1.196 2.949-2.278 6.299-2.712 9.991-.597 3.686-.302 7.665.364 11.721.695 4.079 2.336 8.12 4.523 11.944 1.199 1.85 2.403 3.736 3.933 5.388.725.859 1.451 1.723 2.308 2.456l2.225 1.983c1.287 1.194 3.127 2.63 3.664 3.51.843.858 1.663 2.135 2.493 3.335 1.434 2.533 2.673 5.14 3.396 7.874.663 2.724 1.183 5.46 1.149 8.106.096 2.648-.185 5.178-.657 7.507-.343 1.119-.489 2.294-.857 3.326-.388 1.019-.703 2.039-1.094 2.958-.418.924-.81 1.788-1.172 2.589-.449.75-.867 1.455-1.229 2.122-.693 1.366-1.525 2.222-1.955 2.962-.475.709-.728 1.087-.728 1.087l-.189.281c-.425.638-.499 1.481-.121 2.208.553 1.064 1.864 1.479 2.928.926 0 0 .454-.237 1.305-.678.818-.491 2.193-1.055 3.582-2.239.728-.557 1.554-1.176 2.389-1.924.777-.814 1.617-1.695 2.515-2.636 1.665-2.012 3.311-4.508 4.744-7.471 1.223-3.016 2.45-6.438 2.831-10.234.565-3.777.285-7.868-.532-11.986-.844-4.131-2.603-8.217-4.97-11.988-1.287-1.819-2.528-3.644-4.329-5.442-1.815-2.04-3.044-2.814-4.523-4.14l-2.015-1.7c-.62-.429-1.123-.976-1.639-1.512-1.113-1.003-1.971-2.22-2.889-3.388-1.614-2.481-2.972-5.134-3.843-7.92-.814-2.785-1.321-5.632-1.317-8.369-.149-2.754.277-5.355.775-7.75.572-2.38 1.351-4.524 2.232-6.364.473-.913.917-1.767 1.327-2.557.472-.712.906-1.366 1.298-1.958.658-1.229 1.784-2.239 2.278-2.907.576-.675.884-1.035.884-1.035.605-.707.709-1.756.182-2.582zm195.515 0c-.645-1.013-1.991-1.311-3.003-.666 0 0-.4.255-1.149.732-.755.564-1.834.973-3.259 2.293-.7.63-1.476 1.328-2.32 2.088-.73.825-1.518 1.715-2.361 2.667-1.553 2.024-3.098 4.489-4.462 7.392-1.196 2.949-2.278 6.299-2.712 9.991-.597 3.686-.302 7.665.364 11.721.695 4.079 2.336 8.12 4.523 11.944 1.199 1.85 2.403 3.736 3.933 5.388.725.859 1.451 1.723 2.308 2.456l2.225 1.983c1.287 1.194 3.127 2.63 3.664 3.51.843.858 1.663 2.135 2.493 3.335 1.434 2.533 2.673 5.14 3.396 7.874.663 2.724 1.183 5.46 1.149 8.106.096 2.648-.185 5.178-.657 7.507-.343 1.119-.489 2.294-.857 3.326-.388 1.019-.703 2.039-1.094 2.958-.418.924-.81 1.788-1.172 2.589-.449.75-.867 1.455-1.229 2.122-.693 1.366-1.525 2.222-1.955 2.962-.475.709-.728 1.087-.728 1.087l-.189.281c-.425.638-.499 1.481-.121 2.208.553 1.064 1.864 1.479 2.928.926 0 0 .454-.237 1.305-.678.818-.491 2.193-1.055 3.582-2.239.728-.557 1.554-1.176 2.389-1.924.777-.814 1.617-1.695 2.515-2.636 1.665-2.012 3.311-4.508 4.744-7.471 1.223-3.016 2.45-6.438 2.831-10.234.565-3.777.285-7.868-.532-11.986-.844-4.131-2.603-8.217-4.97-11.988-1.287-1.819-2.528-3.644-4.329-5.442-1.815-2.04-3.044-2.814-4.523-4.14l-2.015-1.7c-.62-.429-1.123-.976-1.639-1.512-1.113-1.003-1.971-2.22-2.889-3.388-1.614-2.481-2.972-5.134-3.843-7.92-.814-2.785-1.321-5.632-1.317-8.369-.149-2.754.277-5.355.775-7.75.572-2.38 1.351-4.524 2.232-6.364.473-.913.917-1.767 1.327-2.557.472-.712.906-1.366 1.298-1.958.658-1.229 1.784-2.239 2.278-2.907.576-.675.884-1.035.884-1.035.605-.707.708-1.756.182-2.582zm-71.82 98.975c.609-.437.749-1.287.312-1.897 0 0-.173-.241-.496-.691-.284-.443-.896-1.132-1.278-1.931-.489-.753-.967-1.77-1.479-2.94-.429-1.186-.87-2.516-.985-3.98-.241-1.44-.082-3.001.271-4.54.351-1.547 1.067-3.085 2.077-4.51 1.01-1.42 2.284-2.774 3.838-3.92.373-.299.752-.594 1.186-.84l1.503-.964c1.003-.718 1.825-1.108 3.08-2.367 2.399-2.182 3.783-4.396 5.098-6.853 1.272-2.416 1.953-4.984 2.434-7.454.485-2.479.47-4.925.308-7.202-.186-2.284-.697-4.404-1.338-6.294-.65-1.887-1.518-3.529-2.39-4.889-.91-1.352-1.806-2.436-2.68-3.216-.761-.852-1.614-1.296-2.088-1.66-.499-.34-.765-.521-.765-.521-.399-.272-.933-.32-1.389-.079-.659.348-.911 1.164-.564 1.823l.116.22s.131.249.377.715c.202.498.664 1.057.981 1.961.37.858.804 1.871 1.113 3.11.338 1.214.657 2.591.791 4.128.245 1.507.204 3.186.167 4.919-.037 1.746-.379 3.553-.74 5.382-.406 1.825-1.063 3.628-1.856 5.339-.781 1.625-1.966 3.424-3.033 4.412-.317.498-1.537 1.314-2.378 2.016l-.044.034c-.06.042.456-.306.225-.15l-.026.019-.103.074-.204.148-.409.297-.81.596c-.549.377-1.059.823-1.558 1.279-2.039 1.74-3.801 3.856-5.028 6.208-1.236 2.326-2.112 4.825-2.261 7.282-.159 2.432.045 4.753.712 6.716.604 1.985 1.538 3.597 2.392 4.953.958 1.281 1.855 2.335 2.713 3.135.825.864 1.471 1.21 1.913 1.589.441.336.676.516.676.516.462.354 1.121.385 1.619.027z" fill="#d7f4f7"/></svg>