<svg viewBox="0 0 64 64" xmlns="http://www.w3.org/2000/svg"><circle cx="33" cy="32" fill="#e5efef" r="23"/><path d="m7 5v2" fill="none" stroke="#4c241d" stroke-linecap="round" stroke-linejoin="round" stroke-width="2"/><path d="m7 11v2" fill="none" stroke="#4c241d" stroke-linecap="round" stroke-linejoin="round" stroke-width="2"/><path d="m3 9h2" fill="none" stroke="#4c241d" stroke-linecap="round" stroke-linejoin="round" stroke-width="2"/><path d="m9 9h2" fill="none" stroke="#4c241d" stroke-linecap="round" stroke-linejoin="round" stroke-width="2"/><circle cx="45.5" cy="10.5" fill="none" r="2.5" stroke="#4c241d" stroke-linecap="round" stroke-linejoin="round" stroke-width="2"/><path d="m20.651 14.1a1.069 1.069 0 1 1 -1.069-1.069 1.069 1.069 0 0 1 1.069 1.069z" fill="#4c241d"/><path d="m60.651 16.1a1.069 1.069 0 1 1 -1.069-1.069 1.069 1.069 0 0 1 1.069 1.069z" fill="#4c241d"/><g stroke="#4c241d" stroke-linecap="round" stroke-linejoin="round" stroke-width="2"><path d="m23.3 57.7a5.5 5.5 0 0 1 0-7.778l22.625-22.622a5.5 5.5 0 0 1 7.778 0 5.5 5.5 0 0 1 0 7.778l-22.628 22.622a5.5 5.5 0 0 1 -7.775 0z" fill="#bf7e68"/><path d="m14 48v11" fill="none"/><path d="m10 60h8" fill="none"/><path d="m4.354 34.832c-2.162 6.268 2.084 13.125 8.7 13.556q.359.024.725.024a10.894 10.894 0 0 0 4.127-.8 10.125 10.125 0 0 0 5.717-12.1l-2.281-8.512h-14.369z" fill="#fff"/><path d="m3.861 39.406a10.028 10.028 0 0 0 9.194 8.982q.359.024.725.024a10.894 10.894 0 0 0 4.127-.8 10.125 10.125 0 0 0 5.717-12.1l-.167-.6a32.808 32.808 0 0 0 -8.165 3.679c-5.092 2.957-8.986 2.121-11.431.815z" fill="#f53e28"/><path d="m42.371 30.851 6.629.149" fill="none"/><path d="m35.371 37.851 6.629.149" fill="none"/><path d="m28.371 44.851 5.629.074" fill="none"/><path d="m23.004 50.865 5.996.135" fill="none"/><path d="m36 48h21v11h-21z" fill="#d9be6f"/><path d="m42 42-6 6h9v5.5a1.5 1.5 0 0 0 3 0v-3a1.5 1.5 0 0 0 3 0v-2.5h6z" fill="#ffce56"/></g></svg>