<svg height="64" viewBox="0 0 64 64" width="64" xmlns="http://www.w3.org/2000/svg"><g fill="none" fill-rule="evenodd"><path d="m32 23-3-20" stroke="#979797" stroke-linecap="square" stroke-width="2"/><path d="m27 20h27l-3 36h-21z" fill="#595959"/><circle cx="40.5" cy="37.5" fill="#22ba8e" r="8.5"/><rect fill="#5ea7ff" height="4" rx="2" width="31" x="25" y="16"/><path d="m7.38099862 56c-2.71549646-2.8673292-4.38099862-6.7391652-4.38099862-11 0-8.836556 7.163444-16 16-16s16 7.163444 16 16c0 4.2608348-1.6655022 8.1326708-4.3809986 11z" fill="#ffdd95"/><rect fill="#bd7575" height="6" rx="3" width="38" y="44"/><g fill="#ed9111"><circle cx="14" cy="35" r="1"/><circle cx="19" cy="34" r="1"/><circle cx="17" cy="40" r="1"/><circle cx="20" cy="40" r="1"/><circle cx="26" cy="37" r="1"/></g></g></svg>