<svg height="585.42" viewBox="0 0 558.65 585.42" width="558.65" xmlns="http://www.w3.org/2000/svg" xmlns:xlink="http://www.w3.org/1999/xlink"><linearGradient id="a" gradientUnits="userSpaceOnUse" x1="342.44" x2="326.67" y1="446.53" y2="980.37"><stop offset="0" stop-opacity="0"/><stop offset=".98"/></linearGradient><linearGradient id="b" x1="478.78" x2="34.48" xlink:href="#a" y1="155.87" y2="513.17"/><linearGradient id="c" x1="165.7" x2="268.19" xlink:href="#a" y1="224.15" y2="262.82"/><linearGradient id="d" x1="434.14" x2="358.68" xlink:href="#a" y1="131.57" y2="273.48"/><linearGradient id="e" gradientUnits="userSpaceOnUse" x1="229.82" x2="280.72" y1="122.61" y2="122.61"><stop offset="0" stop-color="#ecc4d7"/><stop offset=".42" stop-color="#efd4d1"/><stop offset="1" stop-color="#f2eac9"/></linearGradient><linearGradient id="f" x1="259.32" x2="-185.83" xlink:href="#a" y1="245.1" y2="180.06"/><linearGradient id="g" x1="310.46" x2="290.19" xlink:href="#a" y1="212.26" y2="361.68"/><linearGradient id="h" x1="379.98" x2="427.54" xlink:href="#e" y1="179.97" y2="179.97"/><linearGradient id="i" x1="243.29" x2="282.19" xlink:href="#e" y1="544.63" y2="544.63"/><linearGradient id="j" x1="102.31" x2="124.93" xlink:href="#e" y1="511.23" y2="511.23"/><linearGradient id="k" x1="560.85" x2="494.97" xlink:href="#a" y1="-82.12" y2="1162.94"/><linearGradient id="l" x1="565.03" x2="499.15" xlink:href="#a" y1="-81.9" y2="1163.16"/><linearGradient id="m" x1="572.99" x2="507.11" xlink:href="#a" y1="-81.47" y2="1163.58"/><linearGradient id="n" x1="576.85" x2="510.97" xlink:href="#a" y1="-81.27" y2="1163.79"/><linearGradient id="o" x1="580.62" x2="514.73" xlink:href="#a" y1="-81.07" y2="1163.99"/><path d="m266.19 108.7c-43.13 26.16-97.53 32.28-136 64.91-13.58 11.53-24.54 25.93-33.37 41.39-28.7 50.3-34.59 113.08-15.72 167.85s62.17 100.59 115.78 122.53c25.64 10.49 53.13 15.66 80.6 19.27a762.82 762.82 0 0 0 152.78 4.6c32.21-2.27 66.22-7.39 91-28.09 16.52-13.8 27.28-33.27 35.6-53.12a313.52 313.52 0 0 0 20.08-170.88c-5.73-34.91-17.58-69.08-37.1-98.58-32.84-49.65-84.52-82.22-137.48-107-20.79-9.68-47.36-26.58-70.54-16.8-24.37 10.3-42.41 39.84-65.63 53.92z" fill="#68e1fd" opacity=".18" transform="translate(-67.17 -4.31)"/><path d="m84.34 527.25c-4.55.87-9.33 1.88-12.78 5-6.58 5.9-5.23 17.22.55 23.9s14.58 9.79 23 12.34c70.32 21.15 145 21.3 218.42 21.27 22.43 0 45.45-.12 66.4-8.14 14.52-5.55 27.41-14.69 41.73-20.76 53.75-22.8 116.64.85 173.47-12.56 6.67-1.57 14.08-4.43 16.4-10.88 4.69-13-14.27-20.95-28.1-21.63a1683.85 1683.85 0 0 0 -182.11.86c-48.45 2.85-92.59-11.53-141.22-9.56a1194.73 1194.73 0 0 0 -175.76 20.16z" fill="url(#a)" opacity=".52" transform="translate(-67.17 -4.31)"/><path d="m361 515.72h-16.1a20.78 20.78 0 0 1 -20.78-20.72v-469.91a20.79 20.79 0 0 1 20.78-20.78h16.1a20.78 20.78 0 0 0 -20.78 20.78v469.91a20.77 20.77 0 0 0 20.78 20.72z" fill="#68e1fd" transform="translate(-67.17 -4.31)"/><path d="m361 515.72h-16.1a20.78 20.78 0 0 1 -20.78-20.72v-469.91a20.79 20.79 0 0 1 20.78-20.78h16.1a20.78 20.78 0 0 0 -20.78 20.78v469.91a20.77 20.77 0 0 0 20.78 20.72z" fill="url(#b)" transform="translate(-67.17 -4.31)"/><path d="m209.71 166.09s-45.73 59.36-41.07 86 15.89 53.78 15.89 53.78l30.68-131z" fill="#68e1fd" transform="translate(-67.17 -4.31)"/><path d="m209.71 166.09s-45.73 59.36-41.07 86 15.89 53.78 15.89 53.78l30.68-131z" fill="url(#c)" transform="translate(-67.17 -4.31)"/><rect fill="#68e1fd" height="511.41" rx="20.78" width="285.63" x="273.02"/><g transform="translate(-67.17 -4.31)"><path d="m485.94 61.94h-123.06a7.28 7.28 0 0 1 -7.28-7.29 7.28 7.28 0 0 1 7.28-7.28h123.06a7.29 7.29 0 0 1 7.29 7.28 7.29 7.29 0 0 1 -7.29 7.29z" fill="#fff" opacity=".34"/><path d="m485.94 136.23h-123.06a7.28 7.28 0 0 1 -7.28-7.23 7.28 7.28 0 0 1 7.28-7.29h123.06a7.29 7.29 0 0 1 7.29 7.29 7.29 7.29 0 0 1 -7.29 7.23z" fill="#fff" opacity=".34"/><path d="m485.94 210.52h-123.06a7.28 7.28 0 0 1 -7.28-7.28 7.28 7.28 0 0 1 7.28-7.29h123.06a7.29 7.29 0 0 1 7.29 7.29 7.29 7.29 0 0 1 -7.29 7.28z" fill="#fff" opacity=".34"/><path d="m485.94 284.82h-123.06a7.29 7.29 0 0 1 -7.28-7.29 7.28 7.28 0 0 1 7.28-7.29h123.06a7.29 7.29 0 0 1 7.29 7.29 7.3 7.3 0 0 1 -7.29 7.29z" fill="#fff" opacity=".34"/><path d="m485.94 359.11h-123.06a7.29 7.29 0 0 1 -7.28-7.29 7.28 7.28 0 0 1 7.28-7.29h123.06a7.29 7.29 0 0 1 7.29 7.29 7.3 7.3 0 0 1 -7.29 7.29z" fill="#fff" opacity=".34"/><path d="m485.94 433.4h-123.06a7.28 7.28 0 0 1 -7.28-7.29 7.29 7.29 0 0 1 7.28-7.29h123.06a7.3 7.3 0 0 1 7.29 7.29 7.29 7.29 0 0 1 -7.29 7.29z" fill="#fff" opacity=".34"/><path d="m188.4 322.54c8.65-16.63 50.77 19.2 56.09 37s-29.28 80.32-47.24 99.62-51.25 36.57-72.52 42.56c0 0-7.5-10-6-14.11s45.58-36.24 49.57-55.65 11.45-92.78 20.1-109.42z" fill="#302f47"/><path d="m391.67 167.73s-5.32-15.45-4.43-17.15 6.06-5.62 8.5-3.33 7.39 16.49 7.39 16.49l51.95-17.74s5.8-.9 5.19 5.44-56.51 28.56-56.51 28.56-4.55 4.66-12.09-12.27z" fill="#68e1fd"/><path d="m391.67 167.73s-5.32-15.45-4.43-17.15 6.06-5.62 8.5-3.33 7.39 16.49 7.39 16.49l51.95-17.74s5.8-.9 5.19 5.44-56.51 28.56-56.51 28.56-4.55 4.66-12.09-12.27z" fill="url(#d)"/><path d="m267.3 80.07s16.21 28.3 13 45.45-12.38 13.3-15.63 22.17a74.69 74.69 0 0 0 -3.9 18s-9.41 7.64-26.26-13.15a45.87 45.87 0 0 0 -2.62-25.15c-5.37-12.81-2.47-59.05 35.41-47.32z" fill="url(#e)"/><path d="m217.34 65.47c-24.82 23.68-35 9.32-47.4 15.87s-17.17 8.89-12.67 33.56-17.68 19.34-23 34.27c-15.21 42.67 10 50.12 38.14 48.94s25.49-52.54 46.23-54.53 25 1.11 33.39-25.53c4.94-15.67 1.42-22.51 8.13-27.83 8.57-6.79 11.56-21.5 2.61-27.77-9.85-6.9-29.64-12.04-45.43 3.02z" fill="#3f3d56"/><path d="m215.58 162.18s-2.07-9.46 4.73-12.71 26.29-4.82 29 0 5.68 15.74 8.58 16 14.81 19.2 14.81 19.2 2.49 52.62 2.63 73.05c.23 32.46-19.22 83.13-46.07 79s-46.44-11.59-46-25.51 23.12-118.79 21.5-130.6c-1.76-12.74 10.36-18.87 10.82-18.43z" fill="#68e1fd"/><path d="m215.58 162.18s-2.07-9.46 4.73-12.71 26.29-4.82 29 0 5.68 15.74 8.58 16 14.81 19.2 14.81 19.2 2.49 52.62 2.63 73.05c.23 32.46-19.22 83.13-46.07 79s-46.44-11.59-46-25.51 23.12-118.79 21.5-130.6c-1.76-12.74 10.36-18.87 10.82-18.43z" fill="url(#f)"/><path d="m239.69 178.59s10.34-20.4 25-8 32.65 58.25 45.17 58.51 64-41.22 68.49-37.47 12.29 13.11 8.09 21.1-61.76 58.39-86.55 53.67-77.63-38.57-60.2-87.81z" fill="#68e1fd"/><path d="m239.69 178.59s10.34-20.4 25-8 32.65 58.25 45.17 58.51 64-41.22 68.49-37.47 12.29 13.11 8.09 21.1-61.76 58.39-86.55 53.67-77.63-38.57-60.2-87.81z" fill="url(#g)"/><path d="m380 193.13s10.46-19.48 11.32-23 3.47 1.77 3.47 1.77 9-7.1 10.5-10.2 14.53-7.9 20.41-7.13-4 4.38-4 4.38-4.66 2.13-7.1 13.83-4.91 21.71-15.71 26.62-11.49 6-11.49 6-2.55-10.3-7.4-12.27z" fill="url(#h)"/><path d="m188.4 322.54s-12.88 29.48 11.07 57 41.81 49 36.76 91.59 7.06 64.54 7.06 64.54h14.12s21.91-78.9 18.13-112.31-20.27-100.72-20.27-100.72-32.27-15.4-66.87-.1z" fill="#3f3d56"/><path d="m243.29 535.65v18h38.9s-23.29-4.21-23.95-9-.83-9-.83-9z" fill="url(#i)"/><path d="m246.17 548.12c-1.76-.36-3.95-.8-5.06.61a4 4 0 0 0 -.68 1.77 21.47 21.47 0 0 0 -.38 5.31c.07 1.33.38 2.83 1.53 3.49a4.4 4.4 0 0 0 2.31.37l40.34-.74c1.54 0 3.32-.17 4.19-1.44a3.34 3.34 0 0 0 .5-2.1 7 7 0 0 0 -3-5 17.51 17.51 0 0 0 -5.49-2.49c-5-1.52-13-4.36-17.94-2.29-5.39 2.23-10.37 3.76-16.32 2.51z" fill="#3f3d56"/><path d="m118.34 490.31-16 8.17 19.48 33.67s-8-22.27-4.22-25.23 7.36-5.21 7.36-5.21z" fill="url(#j)"/><path d="m108.5 498.23c-.56-1.71-1.28-3.82-3.06-4.08a3.86 3.86 0 0 0 -1.86.29 22 22 0 0 0 -4.8 2.34c-1.11.72-2.25 1.74-2.25 3.07a4.43 4.43 0 0 0 .83 2.18q10.42 17.28 20.84 34.56c.8 1.31 1.82 2.78 3.35 2.9a3.38 3.38 0 0 0 2.07-.62 7 7 0 0 0 2.87-5.12 17.62 17.62 0 0 0 -.59-6c-1.17-5.07-2.75-13.46-7-16.68-4.68-3.53-8.5-7.07-10.4-12.84z" fill="#3f3d56"/></g><rect fill="#fff" height="46.4" opacity=".34" rx="5.69" width="53.05" x="456.71" y="24.09"/><rect fill="#fff" height="46.4" opacity=".34" rx="5.69" width="53.05" x="456.71" y="104.73"/><rect fill="#fff" height="46.4" opacity=".34" rx="5.69" width="53.05" x="456.71" y="177.9"/><rect fill="#fff" height="46.4" opacity=".34" rx="5.69" width="53.05" x="456.71" y="322.67"/><rect fill="#fff" height="46.4" opacity=".34" rx="5.69" width="53.05" x="456.71" y="250.01"/><rect fill="#fff" height="46.4" opacity=".34" rx="5.69" width="53.05" x="456.71" y="398.6"/><path d="m527.6 44.83 9.54 16c3 5 8.16 6 11.9 2.42l32.29-31.08s3-4.29-.19-7.61-5.83.5-5.83.5l-28.6 27.48c-1.81 1.65-4.28 1.11-5.68-1.26l-7.6-12.87c-1.43-2.41-4.08-2.63-5.65-.41a6.66 6.66 0 0 0 -.18 6.83z" fill="#68e1fd" transform="translate(-67.17 -4.31)"/><path d="m527.6 124 9.54 16c3 4.95 8.16 6 11.9 2.42l32.29-31.08s3-4.29-.19-7.61-5.83.5-5.83.5l-28.6 27.48c-1.81 1.65-4.28 1.11-5.68-1.26l-7.6-12.87c-1.44-2.43-4.08-2.65-5.65-.47a6.66 6.66 0 0 0 -.18 6.89z" fill="#68e1fd" transform="translate(-67.17 -4.31)"/><path d="m527.6 274.85 9.54 16c3 4.95 8.16 6 11.9 2.42l32.29-31.09s3-4.29-.19-7.61-5.83.5-5.83.5l-28.6 27.49c-1.81 1.65-4.28 1.1-5.68-1.26l-7.6-12.87c-1.44-2.43-4.08-2.65-5.65-.47a6.66 6.66 0 0 0 -.18 6.89z" fill="#68e1fd" transform="translate(-67.17 -4.31)"/><path d="m527.6 348.05 9.54 16c3 4.95 8.16 6 11.9 2.42l32.29-31.08s3-4.3-.19-7.62-5.83.5-5.83.5l-28.6 27.49c-1.81 1.65-4.28 1.1-5.68-1.26l-7.6-12.87c-1.44-2.43-4.08-2.65-5.65-.47a6.66 6.66 0 0 0 -.18 6.89z" fill="#68e1fd" transform="translate(-67.17 -4.31)"/><path d="m527.6 419.35 9.54 16c3 5 8.16 6 11.9 2.43l32.29-31.09s3-4.29-.19-7.61-5.83.5-5.83.5l-28.6 27.48c-1.81 1.66-4.28 1.11-5.68-1.26l-7.6-12.8c-1.44-2.43-4.08-2.65-5.65-.47a6.66 6.66 0 0 0 -.18 6.82z" fill="#68e1fd" transform="translate(-67.17 -4.31)"/><path d="m527.6 44.83 9.54 16c3 5 8.16 6 11.9 2.42l32.29-31.08s3-4.29-.19-7.61-5.83.5-5.83.5l-28.6 27.48c-1.81 1.65-4.28 1.11-5.68-1.26l-7.6-12.87c-1.43-2.41-4.08-2.63-5.65-.41a6.66 6.66 0 0 0 -.18 6.83z" fill="url(#k)" transform="translate(-67.17 -4.31)"/><path d="m527.6 124 9.54 16c3 4.95 8.16 6 11.9 2.42l32.29-31.08s3-4.29-.19-7.61-5.83.5-5.83.5l-28.6 27.48c-1.81 1.65-4.28 1.11-5.68-1.26l-7.6-12.87c-1.44-2.43-4.08-2.65-5.65-.47a6.66 6.66 0 0 0 -.18 6.89z" fill="url(#l)" transform="translate(-67.17 -4.31)"/><path d="m527.6 274.85 9.54 16c3 4.95 8.16 6 11.9 2.42l32.29-31.09s3-4.29-.19-7.61-5.83.5-5.83.5l-28.6 27.49c-1.81 1.65-4.28 1.1-5.68-1.26l-7.6-12.87c-1.44-2.43-4.08-2.65-5.65-.47a6.66 6.66 0 0 0 -.18 6.89z" fill="url(#m)" transform="translate(-67.17 -4.31)"/><path d="m527.6 348.05 9.54 16c3 4.95 8.16 6 11.9 2.42l32.29-31.08s3-4.3-.19-7.62-5.83.5-5.83.5l-28.6 27.49c-1.81 1.65-4.28 1.1-5.68-1.26l-7.6-12.87c-1.44-2.43-4.08-2.65-5.65-.47a6.66 6.66 0 0 0 -.18 6.89z" fill="url(#n)" transform="translate(-67.17 -4.31)"/><path d="m527.6 419.35 9.54 16c3 5 8.16 6 11.9 2.43l32.29-31.09s3-4.29-.19-7.61-5.83.5-5.83.5l-28.6 27.48c-1.81 1.66-4.28 1.11-5.68-1.26l-7.6-12.8c-1.44-2.43-4.08-2.65-5.65-.47a6.66 6.66 0 0 0 -.18 6.82z" fill="url(#o)" transform="translate(-67.17 -4.31)"/></svg>