<svg viewBox="0 0 400 300" xmlns="http://www.w3.org/2000/svg" xmlns:xlink="http://www.w3.org/1999/xlink"><linearGradient id="a" gradientUnits="userSpaceOnUse" x1="85.12" x2="111.04" y1="216.37" y2="198.16"><stop offset="0" stop-color="#fff" stop-opacity="0"/><stop offset="1" stop-color="#22b573"/></linearGradient><linearGradient id="b" x1="300.08" x2="319.58" xlink:href="#a" y1="212.6" y2="191.96"/><linearGradient id="c" x1="198.97" x2="217.58" xlink:href="#a" y1="205.93" y2="186.24"/><linearGradient id="d" x1="182.83" x2="207.4" xlink:href="#a" y1="262.66" y2="236.65"/><path d="m196.24 291.07-172.5-101.95c-5.49-3.12-10.2-8.12-4.84-11.46l173.1-99.77c2.6-1.61 6.54-2.66 9.18-1.13l181.1 105.09c5.49 3.19 6.48 12.1 1 15.29l-164.28 93.77a22.94 22.94 0 0 1 -22.76.16z" fill="#acf4e6"/><path d="m97.38 229 25.2-11.94-22.58-31.48-42.5 23.15c13.56 6.2 26.5 13.73 39.88 20.27z" fill="url(#a)" opacity=".63"/><path d="m351.4 187.44-39.73 31.25-31.17-14.53 44.5-27.63z" fill="url(#b)" opacity=".63"/><path d="m334.39 132.82c-14.07 0-25.48 3.73-25.48 8.33h51c-.04-4.6-11.44-8.33-25.52-8.33z" fill="#06489e"/><path d="m309 141.79-.08-.64a2.82 2.82 0 0 0 .08.64z" fill="#06489e"/><path d="m359.87 141.15-.1.73a2.84 2.84 0 0 0 .1-.73z" fill="#06489e"/><path d="m334.39 149.48c13.32 0 24.25-3.34 25.38-7.6l.1-.73h-51l.08.64c1.05 4.3 12.05 7.69 25.44 7.69z" fill="#06489e"/><path d="m338.4 98.14h5.73v59.14h-5.73z" fill="#25b000"/><ellipse cx="341.27" cy="98.14" fill="#25b000" rx="2.87" ry="1.21"/><path d="m345.28 108.25h5.73v59.14h-5.73z" fill="#ff8f02" transform="matrix(.97978528 .200052 -.200052 .97978528 34.61 -66.86)"/><ellipse cx="354.06" cy="108.85" fill="#ff8f02" rx="1.21" ry="2.87" transform="matrix(.200052 -.97978528 .97978528 .200052 176.57 433.97)"/><path d="m327.47 142.45-5.23 3a.46.46 0 0 1 -.46-.8l5.36-3.06a.47.47 0 0 1 .17-.06l-1.05-5.66-5.26 3a.46.46 0 0 1 -.46-.8l5.36-3.06a.47.47 0 0 1 .2-.06l-1-5.24-5.18 3a.46.46 0 0 1 -.46-.8l5.36-3.06h.1l-1.08-5.84-5.15 2.95a.46.46 0 0 1 -.46-.8l5.36-3.06h.08l-1.06-5.7-5.23 3a.46.46 0 0 1 -.46-.8l5.36-3.06a.47.47 0 0 1 .17-.06l-.92-4.95-5.24 3a.46.46 0 0 1 -.46-.8l5.36-3.06a.47.47 0 0 1 .17-.06l-.92-4.94-5.23 3a.46.46 0 0 1 -.46-.8l5.36-3.06a.47.47 0 0 1 .16-.06l-1-5.44-5.17 3a.46.46 0 0 1 -.46-.8l5.36-3.3h.1l-.47-2.53-11.37 7s8.08 45 8.25 45c4.72 2.46 13.29 2.75 13.29 2.75z" fill="#ffaf68"/><g fill="#ca4300"><path d="m313.61 100.27a.46.46 0 0 0 .46.8l5.17-3-.18-1h-.1z"/><path d="m314.74 106.68a.46.46 0 0 0 .46.8l5.23-3-.17-.93a.47.47 0 0 0 -.16.06z"/><path d="m315.82 112.56a.46.46 0 0 0 .46.8l5.24-3-.17-.93a.47.47 0 0 0 -.17.06z"/><path d="m316.92 118.43a.46.46 0 0 0 .46.8l5.23-3-.17-.93a.47.47 0 0 0 -.17.06z"/><path d="m318.23 125a.46.46 0 0 0 .46.8l5.15-2.95-.18-1h-.08z"/><path d="m319.47 131.85a.46.46 0 0 0 .46.8l5.18-3-.18-1h-.1z"/><path d="m325.88 135-5.36 3.06a.46.46 0 0 0 .46.8l5.26-3-.17-.92a.47.47 0 0 0 -.19.06z"/><path d="m321.78 144.64a.46.46 0 0 0 .46.8l5.23-3-.17-.93a.47.47 0 0 0 -.17.06z"/></g><path d="m351.25 108.28s.29 1.5 2.57 1.76 3.05-.62 3.05-.62l-.74-11.28z" fill="#ffd8bd"/><path d="m356.13 98.14-2.27 4.71a2.06 2.06 0 0 0 2.6.36z" fill="#653200"/><path d="m338.4 97.8s.52 1.44 2.81 1.34 2.92-1.14 2.92-1.14l-2.51-11z" fill="#ffd8bd"/><path d="m341.62 87-1.49 5a2.06 2.06 0 0 0 2.62-.05z" fill="#653200"/><path d="m334.39 149.48c-13.41 0-24.39-3.39-25.4-7.69.67 5.15 5.24 40.5 5.42 40.7 0 0 2.34 10 20 10 15 0 19.29-7.54 19.29-7.54l6.09-43c-1.15 4.19-12.08 7.53-25.4 7.53z" fill="#68e1fd"/><path d="m264.18 197.28-47.45 25.41-52.68-40.16 48.77-25.05z" fill="url(#c)" opacity=".63"/><path d="m251.62 234.85-67.18 31.82-30.4-18.54 68.53-25.44z" fill="url(#d)" opacity=".63"/><path d="m90.28 95.83c0 .07 4.71-8.09 4-15.37s-9.91-2-9.91-2" fill="#ffb39c"/><path d="m93 59.25s-7.89 3.75-8.64 21.08c0 0 8.26 1.61 11.84.73" fill="#68e1fd"/><path d="m107.92 135.36s2.65 21.72 4.15 27.28 2.83 40.46 2.83 40.46 4.67 3.33 8.67 0c0 0 2.11-28.27 1-35.83s0-37.31 0-37.31" fill="#ffc6b2"/><path d="m92.63 129.09s-.53 16 0 21.31 2.82 38.74 2.82 38.74 3.87 3.35 7.75 0c0 0 2.56-16.55 2.25-19.72s-.84-43.14-.84-43.14" fill="#ffc6b2"/><path d="m109 49.24c0 .09 19.35 17.52 13.53 23.77s-13.53-2.26-13.53-2.26l-2.39-19.85" fill="#f18f22"/><path d="m107.92 215.57a4.54 4.54 0 0 0 .87 5c2.22 2.37 5.15 1.19 7.62 0s9.44-7.4 8.48-9-1.32-8.46-1.32-8.46" fill="#fff"/><path d="m114.79 200.4s-1.13 6.44-2.72 8.53-5.38 7.2-4.15 8.53 2.14-2.65 4.15-1.52 1.38 4 2.83 3.41 8.28-6 9-9.44-.95-9.51-.95-9.51" fill="#68e1fd"/><path d="m83.48 198.53s-.28 3.84 3.2 4.56 7.79-1.39 9.74-2.28 9-6.88 9-6.88l-.84-8.35" fill="#fff"/><path d="m95.16 185s-2.08 5.17-5.84 7.12-6.68 5.71-5.85 6.4 2.64-1.81 3.62-1.11 1 3.74 2.15 3 3.69 1.19 7.17-1.17 2.37-3.34 5.29-4.45 2.92-9.19 2.92-9.19-7.37 1.62-9.46-.6z" fill="#68e1fd"/><path d="m92 100a59 59 0 0 0 -3 16.13c-.54 9.71 3.4 66.49 3.4 66.49a30.32 30.32 0 0 0 18.1 1v13s10 3.24 20.91-3.77c0 0-1.75-81.52-13.61-91.7" fill="#f15a24"/><path d="m118.64 65.47c-1.64-5.56-10.53-7.55-20.64-7.26a12.49 12.49 0 0 0 -5 1c-3.53 5.11-2.75 12.11-2.2 18 .61 6.6.71 18.36 1.19 22.76 9.1 4.7 23.38 1.6 25.82 1.08-.02.01 2.42-30.05.83-35.58z" fill="#68e1fd"/><path d="m104.93 54 .51 5.24s-3.58 2.22-6.72.71l-.43-3.29" fill="#ffb39c"/><path d="m97.2 52.49c-8.18.95-7.54-5.66-7.54-5.66-1.3-13.83 13.46-11.19 13.46-11.19s11.14 2.61 4.24 16.43" fill="#f18f22"/><path d="m91.14 41.91s.6 17 7.62 16.25 6.62-6.62 6.62-6.62 1-10.63-4.81-12.64-9.43 3.01-9.43 3.01z" fill="#ffc6b2"/><path d="m91.14 41.91s4.07 6.08 9.12 5.63 4.67 6.46 4.67 6.46 4.86-2.2 4.77-8.8c-.05-3.74-5.26-9.9-10.12-9.61s-9.58 2.87-8.44 6.32z" fill="#f18f22"/><path d="m115.86 61.52a53.38 53.38 0 0 1 10.25 12.55s-4.82 6.45-9.71 8 0-.73 0-.73-5-3.44-5.83-6.48 5.29-13.34 5.29-13.34z" fill="#68e1fd"/><path d="m78.08 67.12a.86.86 0 0 1 1.31-.93c2.25 1.49 5.65 3.66 5.6 3.7s2.81 10.57 2.81 10.57l-7.56-4.46z" fill="#842e13"/><path d="m85.14 82.63s3.68-1.93 3.86-3.42-1.88-4.38-2.84-4.88-4.85 2.27-4.85 2.27l-1.86-3.94a5.75 5.75 0 0 0 -.61 2.63c.12 1.19.6 10 1.93 11.19s5.18 1 5.42 0-1.05-3.85-1.05-3.85z" fill="#ffc6b2"/><path d="m79.85 84.13s2.08 11.58 4.51 13.22a4.26 4.26 0 0 0 6.39-4.54c-.68-4.54-5.42-11.48-5.42-11.48" fill="#ffc6b2"/><path d="m106.07 120.16c-.08-.78-1.32-.79-1.24 0q3.46 32.63 5.46 65.39c0 .79 1.29.8 1.24 0q-1.99-32.76-5.46-65.39z" fill="#842e13"/><path d="m206.1 15.09c13.7 8.11 47.59 28.18 57.72 34.06a5.66 5.66 0 0 1 2.82 4.94v139.16c.21 2.84-3 5.46-5.61 4l-57-32.44c-2.29-1.31-3.75-3.16-3.75-5.81v-140.6a3.85 3.85 0 0 1 5.82-3.31z" fill="#68e1fd"/><path d="m200.66 16.74 18.14 10.47v3.87a1.86 1.86 0 0 0 .93 1.61l13.87 8a1.23 1.23 0 0 0 1.84-1.06v-2.82l26 15.27a1.65 1.65 0 0 1 .82 1.42v139.08a1.12 1.12 0 0 1 -1.69 1l-60.33-35a6 6 0 0 0 2.66 5.55c3.13 2 58.09 33.09 58.09 33.09s4.35 2 5.61-3.22v-139.91a5.72 5.72 0 0 0 -2.36-4.64c-2.52-1.83-58.18-34.36-58.18-34.36a3.94 3.94 0 0 0 -5.4 1.65z" fill="#124577"/><ellipse cx="229.53" cy="100.08" fill="#fff" rx="11.57" ry="25.24"/><path d="m240.24 89.23a2.63 2.63 0 0 0 -.36-.24c-1.87-.86-31.27 1-31.27 1l18.47 29.12s11.39-14.23 14.15-20.17a42.91 42.91 0 0 0 -.99-9.71z" fill="#f15a24"/><path d="m200 99.42c.09-.3 3.08-14 16.66-8.16 12.27 5.26 12.64 20.9 11.81 24.73-.68 3.11-3.86 7.35-10 8.89" fill="#ff7348"/><ellipse cx="212.83" cy="108.26" fill="#9b3110" rx="12.53" ry="17.61" transform="matrix(.91761594 -.39746822 .39746822 .91761594 -25.5 93.52)"/><path d="m226 109.05-13.3 3.48-2.91-6.18 12-7.5s3.49 5.28 4.21 10.2z" fill="#fff"/><ellipse cx="211.44" cy="109.36" fill="#f7d600" rx="2.76" ry="3.43" transform="matrix(.89148145 -.45305719 .45305719 .89148145 -26.6 107.66)"/><path d="m185.27 94.29 6.85 4.95c2.38 1.72-.28 5.41-2.67 3.69l-6.85-4.93c-2.38-1.74.29-5.43 2.67-3.71z" fill="#f7d600"/><path d="m175.85 112.49 11.24-1.82c2.89-.47 3.62 4 .73 4.5l-11.25 1.83c-2.89.45-3.62-4-.72-4.51z" fill="#f7d600"/><path d="m188.92 127.5 4.52-5.92c1.78-2.33 5.48.33 3.69 2.67l-4.52 5.92c-1.77 2.33-5.47-.33-3.69-2.67z" fill="#f7d600"/><path d="m92.42 71.89c-.38.92 4.16 17.6 4.16 17.6l13.61 1.28-3.46-17.77z" fill="#25b000"/><path d="m125.43 74.73c-2.86 2.4-4.19 4.23-7.13 6.53l3.6 7.85-12.15-5.18s-1.36-8-2.48-8.05-.48 4.87-.7 6-5.75-6.55-6.45-6 1.36 8.77 1.75 10.33 4.71 4.09 4.71 4.09 11.33 4.7 14.54 6.28 10 .68 9.69-4.53c-.2-3.42-3.53-12.81-5.38-17.32z" fill="#ffc6b2"/><path d="m239.86 203.24 26.75 16.18a44.84 44.84 0 0 1 -41.11 22.11c-29.07-1.2-43.85-41-43.85-41l17.87 8.61-28.68-41.86-26.18 15.27 21.81 11.52s28.75 63.16 73.39 9.17z" fill="#25b000"/><path d="m166.46 194.05s20.35 44.72 59 47.48c0 0-38.2-13.09-43.85-41" fill="#290"/></svg>