<svg enable-background="new 0 0 48 48" viewBox="0 0 48 48" xmlns="http://www.w3.org/2000/svg"><g fill="#ffa000"><path d="m38 13c-3.3 0-6-.9-6-2v2c0 1.1 2.7 2 6 2s6-.9 6-2c0-.4 0-1.6 0-2 0 1.1-2.7 2-6 2z"/><path d="m38 10c-3.3 0-6-.9-6-2v2c0 1.1 2.7 2 6 2s6-.9 6-2c0-.4 0-1.6 0-2 0 1.1-2.7 2-6 2z"/><path d="m38 16c-3.3 0-6-.9-6-2v2c0 1.1 2.7 2 6 2s6-.9 6-2c0-.4 0-1.6 0-2 0 1.1-2.7 2-6 2z"/><path d="m38 19c-3.3 0-6-.9-6-2v2c0 1.1 2.7 2 6 2s6-.9 6-2c0-.4 0-1.6 0-2 0 1.1-2.7 2-6 2z"/><path d="m38 22c-3.3 0-6-.9-6-2v2c0 1.1 2.7 2 6 2s6-.9 6-2c0-.4 0-1.6 0-2 0 1.1-2.7 2-6 2z"/><path d="m38 25c-3.3 0-6-.9-6-2v2c0 1.1 2.7 2 6 2s6-.9 6-2c0-.4 0-1.6 0-2 0 1.1-2.7 2-6 2z"/><path d="m38 28c-3.3 0-6-.9-6-2v2c0 1.1 2.7 2 6 2s6-.9 6-2c0-.4 0-1.6 0-2 0 1.1-2.7 2-6 2z"/><path d="m38 31c-3.3 0-6-.9-6-2v2c0 1.1 2.7 2 6 2s6-.9 6-2c0-.4 0-1.6 0-2 0 1.1-2.7 2-6 2z"/><path d="m38 34c-3.3 0-6-.9-6-2v2c0 1.1 2.7 2 6 2s6-.9 6-2c0-.4 0-1.6 0-2 0 1.1-2.7 2-6 2z"/><path d="m38 37c-3.3 0-6-.9-6-2v2c0 1.1 2.7 2 6 2s6-.9 6-2c0-.4 0-1.6 0-2 0 1.1-2.7 2-6 2z"/><path d="m38 40c-3.3 0-6-.9-6-2v2c0 1.1 2.7 2 6 2s6-.9 6-2c0-.4 0-1.6 0-2 0 1.1-2.7 2-6 2z"/></g><g fill="#ffc107"><ellipse cx="38" cy="8" rx="6" ry="2"/><path d="m38 12c-2.8 0-5.1-.6-5.8-1.5-.1.2-.2.3-.2.5 0 1.1 2.7 2 6 2s6-.9 6-2c0-.2-.1-.3-.2-.5-.7.9-3 1.5-5.8 1.5z"/><path d="m38 15c-2.8 0-5.1-.6-5.8-1.5-.1.2-.2.3-.2.5 0 1.1 2.7 2 6 2s6-.9 6-2c0-.2-.1-.3-.2-.5-.7.9-3 1.5-5.8 1.5z"/><path d="m38 18c-2.8 0-5.1-.6-5.8-1.5-.1.2-.2.3-.2.5 0 1.1 2.7 2 6 2s6-.9 6-2c0-.2-.1-.3-.2-.5-.7.9-3 1.5-5.8 1.5z"/><path d="m38 21c-2.8 0-5.1-.6-5.8-1.5-.1.2-.2.3-.2.5 0 1.1 2.7 2 6 2s6-.9 6-2c0-.2-.1-.3-.2-.5-.7.9-3 1.5-5.8 1.5z"/><path d="m38 24c-2.8 0-5.1-.6-5.8-1.5-.1.2-.2.3-.2.5 0 1.1 2.7 2 6 2s6-.9 6-2c0-.2-.1-.3-.2-.5-.7.9-3 1.5-5.8 1.5z"/><path d="m38 27c-2.8 0-5.1-.6-5.8-1.5-.1.2-.2.3-.2.5 0 1.1 2.7 2 6 2s6-.9 6-2c0-.2-.1-.3-.2-.5-.7.9-3 1.5-5.8 1.5z"/><path d="m38 30c-2.8 0-5.1-.6-5.8-1.5-.1.2-.2.3-.2.5 0 1.1 2.7 2 6 2s6-.9 6-2c0-.2-.1-.3-.2-.5-.7.9-3 1.5-5.8 1.5z"/><path d="m38 33c-2.8 0-5.1-.6-5.8-1.5-.1.2-.2.3-.2.5 0 1.1 2.7 2 6 2s6-.9 6-2c0-.2-.1-.3-.2-.5-.7.9-3 1.5-5.8 1.5z"/><path d="m38 36c-2.8 0-5.1-.6-5.8-1.5-.1.2-.2.3-.2.5 0 1.1 2.7 2 6 2s6-.9 6-2c0-.2-.1-.3-.2-.5-.7.9-3 1.5-5.8 1.5z"/><path d="m38 39c-2.8 0-5.1-.6-5.8-1.5-.1.2-.2.3-.2.5 0 1.1 2.7 2 6 2s6-.9 6-2c0-.2-.1-.3-.2-.5-.7.9-3 1.5-5.8 1.5z"/></g><g fill="#ffa000"><path d="m10 19c-3.3 0-6-.9-6-2v2c0 1.1 2.7 2 6 2s6-.9 6-2c0-.4 0-1.6 0-2 0 1.1-2.7 2-6 2z"/><path d="m10 16c-3.3 0-6-.9-6-2v2c0 1.1 2.7 2 6 2s6-.9 6-2c0-.4 0-1.6 0-2 0 1.1-2.7 2-6 2z"/><path d="m10 22c-3.3 0-6-.9-6-2v2c0 1.1 2.7 2 6 2s6-.9 6-2c0-.4 0-1.6 0-2 0 1.1-2.7 2-6 2z"/><path d="m10 25c-3.3 0-6-.9-6-2v2c0 1.1 2.7 2 6 2s6-.9 6-2c0-.4 0-1.6 0-2 0 1.1-2.7 2-6 2z"/><path d="m10 28c-3.3 0-6-.9-6-2v2c0 1.1 2.7 2 6 2s6-.9 6-2c0-.4 0-1.6 0-2 0 1.1-2.7 2-6 2z"/><path d="m10 31c-3.3 0-6-.9-6-2v2c0 1.1 2.7 2 6 2s6-.9 6-2c0-.4 0-1.6 0-2 0 1.1-2.7 2-6 2z"/><path d="m10 34c-3.3 0-6-.9-6-2v2c0 1.1 2.7 2 6 2s6-.9 6-2c0-.4 0-1.6 0-2 0 1.1-2.7 2-6 2z"/><path d="m10 37c-3.3 0-6-.9-6-2v2c0 1.1 2.7 2 6 2s6-.9 6-2c0-.4 0-1.6 0-2 0 1.1-2.7 2-6 2z"/><path d="m10 40c-3.3 0-6-.9-6-2v2c0 1.1 2.7 2 6 2s6-.9 6-2c0-.4 0-1.6 0-2 0 1.1-2.7 2-6 2z"/></g><g fill="#ffc107"><ellipse cx="10" cy="14" rx="6" ry="2"/><path d="m10 18c-2.8 0-5.1-.6-5.8-1.5-.1.2-.2.3-.2.5 0 1.1 2.7 2 6 2s6-.9 6-2c0-.2-.1-.3-.2-.5-.7.9-3 1.5-5.8 1.5z"/><path d="m10 21c-2.8 0-5.1-.6-5.8-1.5-.1.2-.2.3-.2.5 0 1.1 2.7 2 6 2s6-.9 6-2c0-.2-.1-.3-.2-.5-.7.9-3 1.5-5.8 1.5z"/><path d="m10 24c-2.8 0-5.1-.6-5.8-1.5-.1.2-.2.3-.2.5 0 1.1 2.7 2 6 2s6-.9 6-2c0-.2-.1-.3-.2-.5-.7.9-3 1.5-5.8 1.5z"/><path d="m10 27c-2.8 0-5.1-.6-5.8-1.5-.1.2-.2.3-.2.5 0 1.1 2.7 2 6 2s6-.9 6-2c0-.2-.1-.3-.2-.5-.7.9-3 1.5-5.8 1.5z"/><path d="m10 30c-2.8 0-5.1-.6-5.8-1.5-.1.2-.2.3-.2.5 0 1.1 2.7 2 6 2s6-.9 6-2c0-.2-.1-.3-.2-.5-.7.9-3 1.5-5.8 1.5z"/><path d="m10 33c-2.8 0-5.1-.6-5.8-1.5-.1.2-.2.3-.2.5 0 1.1 2.7 2 6 2s6-.9 6-2c0-.2-.1-.3-.2-.5-.7.9-3 1.5-5.8 1.5z"/><path d="m10 36c-2.8 0-5.1-.6-5.8-1.5-.1.2-.2.3-.2.5 0 1.1 2.7 2 6 2s6-.9 6-2c0-.2-.1-.3-.2-.5-.7.9-3 1.5-5.8 1.5z"/><path d="m10 39c-2.8 0-5.1-.6-5.8-1.5-.1.2-.2.3-.2.5 0 1.1 2.7 2 6 2s6-.9 6-2c0-.2-.1-.3-.2-.5-.7.9-3 1.5-5.8 1.5z"/></g><g fill="#ffa000"><path d="m24 28c-3.3 0-6-.9-6-2v2c0 1.1 2.7 2 6 2s6-.9 6-2c0-.4 0-1.6 0-2 0 1.1-2.7 2-6 2z"/><path d="m24 25c-3.3 0-6-.9-6-2v2c0 1.1 2.7 2 6 2s6-.9 6-2c0-.4 0-1.6 0-2 0 1.1-2.7 2-6 2z"/><path d="m24 31c-3.3 0-6-.9-6-2v2c0 1.1 2.7 2 6 2s6-.9 6-2c0-.4 0-1.6 0-2 0 1.1-2.7 2-6 2z"/><path d="m24 34c-3.3 0-6-.9-6-2v2c0 1.1 2.7 2 6 2s6-.9 6-2c0-.4 0-1.6 0-2 0 1.1-2.7 2-6 2z"/><path d="m24 37c-3.3 0-6-.9-6-2v2c0 1.1 2.7 2 6 2s6-.9 6-2c0-.4 0-1.6 0-2 0 1.1-2.7 2-6 2z"/><path d="m24 40c-3.3 0-6-.9-6-2v2c0 1.1 2.7 2 6 2s6-.9 6-2c0-.4 0-1.6 0-2 0 1.1-2.7 2-6 2z"/></g><g fill="#ffc107"><ellipse cx="24" cy="23" rx="6" ry="2"/><path d="m24 27c-2.8 0-5.1-.6-5.8-1.5-.1.2-.2.3-.2.5 0 1.1 2.7 2 6 2s6-.9 6-2c0-.2-.1-.3-.2-.5-.7.9-3 1.5-5.8 1.5z"/><path d="m24 30c-2.8 0-5.1-.6-5.8-1.5-.1.2-.2.3-.2.5 0 1.1 2.7 2 6 2s6-.9 6-2c0-.2-.1-.3-.2-.5-.7.9-3 1.5-5.8 1.5z"/><path d="m24 33c-2.8 0-5.1-.6-5.8-1.5-.1.2-.2.3-.2.5 0 1.1 2.7 2 6 2s6-.9 6-2c0-.2-.1-.3-.2-.5-.7.9-3 1.5-5.8 1.5z"/><path d="m24 36c-2.8 0-5.1-.6-5.8-1.5-.1.2-.2.3-.2.5 0 1.1 2.7 2 6 2s6-.9 6-2c0-.2-.1-.3-.2-.5-.7.9-3 1.5-5.8 1.5z"/><path d="m24 39c-2.8 0-5.1-.6-5.8-1.5-.1.2-.2.3-.2.5 0 1.1 2.7 2 6 2s6-.9 6-2c0-.2-.1-.3-.2-.5-.7.9-3 1.5-5.8 1.5z"/></g></svg>