<svg viewBox="0 0 400 300" xmlns="http://www.w3.org/2000/svg" xmlns:xlink="http://www.w3.org/1999/xlink"><linearGradient id="a" gradientUnits="userSpaceOnUse" x1="304.97" x2="295.92" y1="183.93" y2="199.93"><stop offset=".01" stop-color="#a67c52"/><stop offset="1" stop-color="#fff"/></linearGradient><linearGradient id="b" x1="220.23" x2="205.3" xlink:href="#a" y1="229.22" y2="255.64"/><linearGradient id="c" x1="172.79" x2="157.31" xlink:href="#a" y1="182.59" y2="209.99"/><linearGradient id="d" x1="264.84" x2="233.72" xlink:href="#a" y1="180.62" y2="235.67"/><linearGradient id="e" x1="88.35" x2="59.14" xlink:href="#a" y1="163.05" y2="178.54"/><path d="m196.24 288.6-172.5-101.95c-5.49-3.08-10.2-8.15-4.85-11.46l173.11-99.78c2.6-1.61 6.54-2.66 9.18-1.13l181.1 105.09c5.49 3.19 6.48 12.1 1 15.29l-164.28 93.78a22.94 22.94 0 0 1 -22.76.16z" fill="#ffbe30"/><path d="m300.72 188.66-25.29 7.94 21.75 13.15 23.17-13.45" fill="url(#a)"/><path d="m212.37 237.38-40.87 12.83 35.16 21.24 38.91-21.83" fill="url(#b)"/><path d="m165.74 190.19-32.99 21.52 21.89 12.16 33.33-26.4" fill="url(#c)"/><path d="m183.71 233.62c11.92 3.3 17.51 14.37 27.45 20.6 16.77 10.52 39.62-2.15 54.49-10.34 5.6-3.08 11.18-6.3 16.52-9.83 4.66-3.08 6.94-7.91 9.93-12.48.4-.61 6-9.49 6.25-9.35-4.16-2.19-24.71-2-44-11.58-15.23 8.89-47.18 19.7-70.83 33a.6.6 0 0 1 .19-.02z" fill="url(#d)"/><path d="m195.18 92.46c0 1.43-.31 5.42-.31 5.42s-11.19 1-15.84-2.71 0-9.59 0-9.59l16.15 3.82" fill="#ccc"/><path d="m211.19 95.92s-2.37 1.93-4.62 1.64-1.22.42-3.29.3a57.52 57.52 0 0 1 -8.22-1.54c-.5-.23.12-3.86.12-3.86" fill="#f9d7b4"/><ellipse cx="208.67" cy="90.31" fill="#b2b2b2" rx="21.53" ry="5.93"/><path d="m206.69 92.85a46.46 46.46 0 0 0 14.31-1.55 26.94 26.94 0 0 0 4-1.57 17 17 0 0 0 -33.57.89c4.8 1.88 11.03 2.12 15.26 2.23z" fill="#ccc"/><circle cx="208.67" cy="75.27" fill="#b2b2b2" r="3.35"/><path d="m214.32 78.62a13.85 13.85 0 0 1 8.13 9.38l-2.86.44a10.59 10.59 0 0 0 -5.27-9.82z" fill="#fff"/><path d="m180.71 88.31a2.07 2.07 0 0 0 1.62-1.31c.54-1.24 1.31-3.71 2.47-3.71s4.79.06 5.79 1a5.17 5.17 0 0 1 1.7 3.29c0 .93-1.85 1.47-1.85 1.47s-1.93 2.55-7.57 4.79" fill="#f9d7b4"/><path d="m160.31 196.72s5.6 5.77 7.56 7.15 3.6 1.38 3.1 3.35-4.55 2.42-7.35 2-8.5-4.51-9.64-5.33v1.38l-4.15-1.38s-.93-7.74 1.24-9.16" fill="#252726"/><path d="m179.43 193.22c-3.05-2.22-2.44-4.88-2.44-4.88l-10.17.85c-.16 3.95-.08 7.9-.18 11.85l3.66-.31 1-1.57c3.13 0 5.69 2.21 9.37 2.8s7.59-2.36 7.28-4.5-5.46-2.02-8.52-4.24z" fill="#252726"/><path d="m175.49 190.8c.61-.25 1.28-.5 2.06-.74.87-6.95 1.15-29.54 1.59-34.66 1.12-13-2.71-50.45-3.24-48.66l-15.81 3.35s4.93 60.33 5.66 80.11a22.22 22.22 0 0 0 9.74.6z" fill="#c1b7b4"/><path d="m169 110.92-16-1.74c-2.19-.23-3.76 47.55-3.64 50v1a.42.42 0 0 1 -.08.27c-.41 16.44-.8 33.32.37 34.56a9.18 9.18 0 0 0 10.57 1.67s8.47-62.74 8.72-69 .06-16.76.06-16.76z" fill="#ccc"/><path d="m165.45 62s-.51.19-1.31.56c-2.59 1.2-8.23 4.26-9.55 8.71-1.73 5.82-1.26 42.32-1.26 42.32s16 5.88 23.62-1.51c0 0 6.34-31.79 5.83-39.62s-2.89-12.88-7.23-13" fill="#f4f4f4"/><path d="m170.23 97.35c-6.05-.42-12.68-6.35-17.64-9.73-.68 9.61-1.23 21-1.45 25.79 4.85 3.29 12.18 5.75 18 5.57a.49.49 0 0 1 .48.27 28.57 28.57 0 0 0 7.8-3.17c.34-3.79 1.19-12.67 2.26-18.85a47.71 47.71 0 0 1 -9.45.12z" fill="#68e1fd"/><path d="m165.35 56.55v5.26s1.83 3.75 6.9 2.47l.37-5.3" fill="#efc095"/><path d="m182.94 70.26c-.37-3.44-.59-8.8-2.88-10.1-1.56-.89-5-.86-5-.86s3.19 8.09 2.83 12.09-3.07 15.09-3.07 15.09-3.91-10.34-6.26-14.26a58.07 58.07 0 0 0 -6.76-8.48s-4.41 2.26-5.34 3.39c4.13 3.75 7.35 7.53 8.34 13.31.67 3.89.76 7.88 1.31 11.79a45.85 45.85 0 0 1 .49 4.56c2.43-.57 13.44-3.21 13.81-4s2.9-19.09 2.53-22.53z" fill="#68e1fd"/><path d="m178.95 42a5.21 5.21 0 0 0 -4.48-1.26 3.59 3.59 0 0 0 -.43-.1c-4.15-.52-9-.15-11.17 4s0 8.81 2.59 12.07c2.08 2.61 5.58.47 5.67-2.17a4.68 4.68 0 0 0 3.19-3.73 5.24 5.24 0 0 0 3.67-.38 5 5 0 0 0 2.27-2.55 5.47 5.47 0 0 0 -1.31-5.88z" fill="#f49e40"/><path d="m178 47.9s-.83 5-.91 7-1.88 6.19-4 7.27-7.15-4.83-7.71-5.63-1.05-4.54.33-4.65 2.26 3 2.26 3a4.05 4.05 0 0 0 1.74-3.22c-.14-1.93-.07-4.13 1.94-4.26s3.92 2.59 6.35.49z" fill="#f9d7b4"/><path d="m172.78 65.23-1.83 3.86 1.84 1.69-1.79 4.49 3.93 13.1 2.22-14.69s-2.49-2.83-2.48-3 1.14-2.29 1.14-2.29z" fill="#c1272d"/><path d="m166 93.52s-1.26-24.37-7.07-26.35-7.19 4.19-6.81 14.4 3 22.3 9.52 22.76 21.44-8.58 21.44-8.58.48-6.79-2-7.44-15.08 5.21-15.08 5.21z" fill="#ccc"/><path d="m166.32 93.11s2.25.16 1.55 5-2.27 19-2.27 19 9.49-3.26 13-6.1c0 0 5.84-23.31.65-22.65a89.9 89.9 0 0 0 -12.93 4.75z" fill="#fff"/><path d="m177.44 116.08-2.36 4.17-2-2.21-3.89 4.47s-11.47-5.26-18.07-9.09" fill="#68e1fd"/><ellipse cx="308.94" cy="192.83" fill="#008074" rx="14.77" ry="5.48"/><path d="m306.45 168.29.57 22.08h4.4v-22.08" fill="#008074"/><path d="m316.58 108c-13.73-3-15.93 7.51-15.93 7.51s9.22 19.48 10.23 29.45-5.62 20.07-12.54 24a8.22 8.22 0 0 0 -4.18 4.83c-.2.86 8.93 1.9 9.79 2 14.33 1 22.44-16.23 23.21-28.43.58-9.02 3.15-36.42-10.58-39.36z" fill="#68e1fd"/><path d="m295.66 213.89-4.14-1.9s-.4-3.59 1-4.35 3.14 6.25 3.14 6.25z" fill="#196132"/><path d="m285.47 203.89s-.37 8.84-1 9.76-8.35 5.21-9 6.77 8.76-.32 11.83-1.17 5.91-2.45 6-3.61-1.3-7.06-.16-7 2.43 5.2 2.43 5.2l2.68-1.67-6.47-20.54" fill="#196132"/><path d="m276.86 205.51-4.14-1.9s-.4-3.59 1-4.35 3.14 6.25 3.14 6.25z" fill="#196132"/><path d="m266.67 195.51s-.37 8.84-1 9.76-8.35 5.21-9 6.77 8.76-.32 11.83-1.17 5.91-2.45 6-3.61-1.3-7.06-.16-7 2.43 5.2 2.43 5.2l2.68-1.67-6.47-20.54" fill="#196132"/><path d="m295.63 128.59c1.47 1.35 5.26 20.5 3.23 29.79s-24.39 13.62-24.39 13.62l5.79 23.41s-8.45 6.69-16.71 4.21c-3-.9-10.49-34.52-8-39.29s32.17-21.72 32.17-21.72" fill="#fff0d7"/><path d="m313.48 135.2c1.47 1.35 5.84 12.07.57 25.47-3.48 8.84-23.36 15.47-23.36 15.47l7.43 25.9s-8.79 7.62-16.71 4.21-10.83-35.38-8.33-40.15 28.17-21.92 28.17-21.92" fill="#fff0d7"/><path d="m305.77 109.5s15 5.83 11.3 26.93c-2.59 14.87-17.22 16.83-17.22 16.83s-9.75-5.83-8.71-7.89l12.9-7.09-15-7.15-10.43 11.44-7.76-5.77s10.63-17.54 15.26-24.79 19.66-2.51 19.66-2.51z" fill="#ff9a22"/><path d="m263.8 135.03 1.31-1.34" fill="#fff7f0"/><path d="m287.4 145.68 2.56-2.16s-5.94-5.2-13.87-4.32a16.7 16.7 0 0 0 -9.06-6.6l-3.23 2.4" fill="#ffe8bc"/><path d="m289.96 143.52 2.4 15.07-4.62 2.67-3.98-13.73" fill="#ffe8bc"/><path d="m287.4 145.68 2.47 14.27-2.12 1.31s-22.49-11.71-22.28-11.94-1.67-14.32-1.67-14.32" fill="#68e1fd"/><path d="m265.38 133.84 22.02 11.84-2.02 1.19-21.58-11.84z" fill="#68e1fd"/><path d="m265.38 133.84 22.02 11.84-2.02 1.19-21.58-11.84z" fill="#1371a5" opacity=".42"/><path d="m284.64 147.73a1.19 1.19 0 0 1 1.42-1.48 14.49 14.49 0 0 0 5.31.77 1.1 1.1 0 0 1 .56.12h.05a32.21 32.21 0 0 0 5.71 4.37l-.6.3a35.42 35.42 0 0 1 -2.67 4.6 2.57 2.57 0 0 1 -2.06 1.09 6.5 6.5 0 0 1 -.84.57 2.44 2.44 0 0 1 -2.73-.18 1.3 1.3 0 0 1 -.94.19 1.24 1.24 0 0 1 -1.34-.1 2.39 2.39 0 0 1 -1-3.18 2.48 2.48 0 0 1 -.16-3.15 7.52 7.52 0 0 1 1.76-1.86 3.07 3.07 0 0 1 -2.47-2.06z" fill="#fdba45"/><path d="m263.16 143.19c-.13-.2-.26-.39-.39-.6a1.12 1.12 0 0 1 .5-1.64l.16-.16a1.19 1.19 0 0 1 .45-1.51 1.21 1.21 0 0 1 1.11-.05 1 1 0 0 1 .3.12 4.52 4.52 0 0 1 1.87 2.2 1.18 1.18 0 0 1 -.51 1.34 1.25 1.25 0 0 1 -.41.14 7.26 7.26 0 0 1 1 1.76c.33.82-.51 1.56-1.27 1.51l.18.24c.67.83-.38 2-1.29 1.76a2.45 2.45 0 0 1 -1.49-1.28c-.4-.68-.78-1.38-1.15-2.07a1.24 1.24 0 0 1 .94-1.76z" fill="#fdba45"/><path d="m288.49 125.82s-.06 13.35.76 14.79 15.06 7.12 15.06 7.12l8.49-11.19z" fill="#ff9a22"/><path d="m295.16 102.82s-2.36 5.47-1.36 7.39 6.2.47 6.2.47" fill="#1b6333"/><path d="m294.65 100.06s.09 11 4.64 12.09 6.81-4.55 6.81-4.55.75-7.44-.75-9-8.35-1.71-10.7 1.46z" fill="#fdba45"/><path d="m292.88 98.88s3.14 4.24 5 5.29 3.84.38 4.5 1.86-1.39 10.36.71 12 6-3.27 7.86-1 1 6.63 3.78 7.51 6-3.5 3.26-6.88-3-5.06-1.53-6.23c2.24-1.74-.25-7.91-2.94-9s-3.54-7.13-8.35-8.51-11.34 1.53-12.29 4.96z" fill="#1b6333"/><path d="m289.46 121.56q.19 9.24.78 18.46c0 .7-1 .72-1.09 0q-.58-9.22-.78-18.46a.54.54 0 0 1 1.09 0z" fill="#f26250"/><path d="m291.34 145a24.79 24.79 0 0 0 13.58-17.58c.14-.69 1.19-.42 1.06.27a25.8 25.8 0 0 1 -14.07 18.24c-.63.3-1.2-.62-.57-.93z" fill="#f26250"/><ellipse cx="252.92" cy="156.2" fill="#e88815" rx="52.53" ry="25.31"/><path d="m221.58 165.91q-3.78 10.11-7.47 20.25c-3.69 10.14-7.49 20.28-10.69 30.59a16.34 16.34 0 0 0 -1.22 4.79c0 2.33 2 3.05 3.62 1.2.91-1 22.24-56.84 22.24-56.84z" fill="#e88815"/><path d="m265.76 176.57q3.78 10.11 7.47 20.25c3.69 10.14 7.49 20.28 10.69 30.59a16.34 16.34 0 0 1 1.22 4.79c0 2.33-2 3.05-3.62 1.2-.91-1-22.24-56.84-22.24-56.84z" fill="#e88815"/><path d="m256.65 142.47q.18 10.79.26 21.58c.09 10.79.27 21.62-.16 32.4a16.34 16.34 0 0 1 -.46 4.92c-.8 2.19-2.9 2.21-3.81-.08-.51-1.29-1.94-61-1.94-61z" fill="#e88815"/><path d="m232.34 237.08c-.61-.07-2.49-.14-3.19-.14a14.86 14.86 0 0 1 -7.5 2.54 13.2 13.2 0 0 1 -9.27-2.11l-.56 5c-.32 3.82 4.69 3.06 6.57 3a55.94 55.94 0 0 0 10.92-1.67c1.41-.35 6-1.07 6.25-3.41s-.49-2.89-3.22-3.21z" fill="#007058"/><path d="m223.69 223.38s-2.91 13.46-1.55 13.41 10.2.3 10.2.3a11 11 0 0 1 -8.65 6.07c-6.6 1-11.32-5.78-11.32-5.78l2.62-16.8" fill="#ff666d"/><path d="m211.27 217.15-2 10.71s3.08 3.16 13.45 2.79 0-18.94 0-18.94" fill="#edbab9"/><path d="m205.21 191.23s11.57-9.29 19.26-10.38 11.69 7.24 11.15 12.82-18.94 8.63-18.94 8.63" fill="#edbab9"/><path d="m243.12 245.1c-.61-.07-2.49-.14-3.19-.14a14.86 14.86 0 0 1 -7.5 2.54 13.2 13.2 0 0 1 -9.27-2.11l-.56 5c-.32 3.82 4.69 3.06 6.57 3a55.94 55.94 0 0 0 10.92-1.67c1.41-.35 6-1.07 6.25-3.41s-.5-2.9-3.22-3.21z" fill="#007058"/><path d="m234.47 231.39s-2.91 13.46-1.55 13.41 10.2.3 10.2.3a11 11 0 0 1 -8.65 6.07c-6.6 1-11.32-5.78-11.32-5.78l2.62-16.8" fill="#ff666d"/><path d="m205.95 191.66s11.57-9.29 19.26-10.38 11.69 7.24 11.15 12.82-18.94 8.63-18.94 8.63" fill="#edbab9"/><path d="m212.11 194.75c1.5-1.39 21.14-10.56 28.06-6.37s6.48 7.28 5.61 12.38-7.56 32.57-7.56 32.57a25 25 0 0 1 -15.71.74l1.94-20.41-26.17-14.29" fill="#ffe0de"/><path d="m212.27 192.63 6.2 4.66 26.5-13.62-17.72-12.6-24.81 14.07z" fill="#007058"/><path d="m185.83 177.45s-.41-15.6 6.69-15.86 16.39 4.86 16.91 13.11 1.9 23.69 1.9 26.59-5.2 13.59-5.2 13.59" fill="#4be2c5"/><path d="m231.9 177.71.12-.07a1 1 0 0 0 -1-1.76l-.25.15a1 1 0 0 0 -1.51-.91c-1.17.58-2.33 1.16-3.48 1.77l.44-.54c.67-.84-.17-2.26-1.23-1.6q-2.09 1.31-4.11 2.73a1.07 1.07 0 0 0 -.22 1.55l-.21.16a1.1 1.1 0 0 0 -.3 1.4 1.15 1.15 0 0 0 .11.93c-.63.47-.27 1.4.41 1.67l.09.09-1.2.42c-1.23.43-.7 2.4.54 2l6.18-2.16a9.63 9.63 0 0 0 4.35-2.35 1 1 0 0 0 .17-1.11 6.45 6.45 0 0 0 1.25-.85.91.91 0 0 0 -.15-1.52z" fill="#ff666d"/><path d="m206.66 181.59s11.1-4.51 14.41-5.48c0 0 3.43 2.4 2.47 8.72 0 0-10 10.23-16.21 13.3" fill="#4be2c5"/><path d="m198 159.36a1.05 1.05 0 0 0 -.08-1.34 4.15 4.15 0 0 0 -1.74-1.38 1.54 1.54 0 0 0 -2 1.11 2.6 2.6 0 0 0 3.07 2.88 1 1 0 0 0 .71-1.25z" fill="#ff666d"/><ellipse cx="199.63" cy="246.51" fill="#008074" rx="14.77" ry="5.48"/><path d="m197.15 221.97.57 22.08h4.4v-22.08" fill="#008074"/><path d="m179.43 209.54a23.47 23.47 0 0 1 -1.11-3.32c-2.2-8.62-3.64-41 10.91-39.66 16 1.44 10.57 41.41 26.75 40.19s22.8 3 16.19 9.25c-13.23 12.52-44.63 12.8-52.74-6.46z" fill="#68e1fd"/><path d="m200.32 147.72s5.32 11.2 1.82 14.5c-2.47 2.33-7.37 2.18-9.92-2.1s3.3-14.44 8.1-12.4z" fill="#ff666d"/><path d="m195.15 158.42a16.32 16.32 0 0 0 5.18-9.9c.57-6-12.65-3.87-14.82 1.94s1 14.22 9.93 13z" fill="#007058"/><path d="m189 159.13c-.91.77-24.1 24.45-12.07 32.38 10 6.61 13.86-28.05 13.86-30.71" fill="#007058"/><path d="m254.51 147.46a11.11 11.11 0 0 1 -6.59-2.53v7a7.26 7.26 0 0 0 7.26 7.26 7.26 7.26 0 0 0 7.26-7.26v-7.13c-2.44 1.01-5.29 2.88-7.93 2.66z" fill="#68e1fd"/><ellipse cx="255.18" cy="144.88" fill="#5ed18d" rx="7.26" ry="3.85"/><path d="m255.18 145.53s-4.94-.73-6.25-8.71c0 0 4.22 2.32 6.25 8.71z" fill="#5ed18d"/><path d="m255.91 144.51s-5.66-10.17 0-17a28.48 28.48 0 0 1 0 17z" fill="#5ed18d"/><path d="m255.18 138.12s-4.94-.73-6.25-8.71c0 0 4.22 2.32 6.25 8.71z" fill="#5ed18d"/><path d="m255.78 141.38s-1.24-4.84 5.63-9.13c0 0-.52 4.75-5.63 9.13z" fill="#5ed18d"/><ellipse cx="255.18" cy="144.88" fill="#146666" rx="7.26" ry="3.85"/><path d="m255.18 145.53s-4.94-.73-6.25-8.71c0 0 4.22 2.32 6.25 8.71z" fill="#5ed18d"/><path d="m255.91 144.51s-5.66-10.17 0-17a28.48 28.48 0 0 1 0 17z" fill="#5ed18d"/><path d="m255.18 138.12s-4.94-.73-6.25-8.71c0 0 4.22 2.32 6.25 8.71z" fill="#5ed18d"/><path d="m255.78 141.38s-1.24-4.84 5.63-9.13c0 0-.52 4.75-5.63 9.13z" fill="#5ed18d"/><path d="m81.46 154.34-40.15 24.11 19.57 11.55 38.12-22.16c-6.74-4.54-11.75-7.9-17.54-13.5z" fill="url(#e)"/><ellipse cx="85.44" cy="161.05" fill="#68e1fd" rx="16.13" ry="11.36"/><ellipse cx="85.45" cy="154.34" fill="#974c26" rx="12.08" ry="4.95"/><g fill="#999a1c"><path d="m86.25 154.45c1-1.33 1.9-2.73 2.9-4.3 1.28-2 2.48-4.05 3.57-6.16a40.7 40.7 0 0 0 2.61-5.84 48.74 48.74 0 0 0 1.91-6.69c.12-.6.23-1.2.33-1.8 0-.28.05-.25.05-.21s0-.19 0-.52c.11-1.22.19-2.44.2-3.67a30.84 30.84 0 0 0 -2.4-12.35 53.25 53.25 0 0 0 -8.57 21.09q-.13.68-.24 1.36s-.12.83-.17 1.16l-.13 1.14q-.09.86-.16 1.73c-.18 2.22-.26 4.46-.25 6.69 0 2.8.1 5.59.35 8.37zm5.14-33.34q.44-.5.9-1a2 2 0 0 0 -.06.87 2.77 2.77 0 0 0 -.84.14z"/><path d="m86.56 154.66c.08-1.63.12-3.33.12-5.18 0-2.37-.11-4.75-.33-7.11a40.7 40.7 0 0 0 -1-6.32 48.74 48.74 0 0 0 -2-6.66c-.22-.57-.45-1.13-.69-1.69-.11-.26-.09-.24-.07-.2l-.25-.46c-.57-1.08-1.16-2.16-1.81-3.19a30.84 30.84 0 0 0 -8.69-9.09 53.25 53.25 0 0 0 4.16 22.38q.26.64.53 1.27l.48 1.07.51 1q.39.78.8 1.54c1.05 2 2.19 3.89 3.4 5.76 1.53 2.38 3.15 4.66 4.84 6.88zm-13.7-30.82q.1-.66.24-1.31a2 2 0 0 0 .42.76 2.77 2.77 0 0 0 -.66.54z"/><path d="m86.64 155.51c-.48-.91-1-1.84-1.61-2.84-.77-1.28-1.59-2.53-2.47-3.73a25.6 25.6 0 0 0 -2.56-3.1 30.65 30.65 0 0 0 -3.24-2.95l-.92-.69c-.14-.1-.12-.1-.1-.09l-.28-.17c-.66-.4-1.32-.79-2-1.14a19.39 19.39 0 0 0 -7.63-2.1 33.49 33.49 0 0 0 9.47 10.75l.7.51.6.42.61.39.93.57q1.81 1.08 3.7 2c1.56.81 3.16 1.52 4.8 2.17zm-17.35-12.21q-.16-.39-.29-.78a1.26 1.26 0 0 0 .47.27 1.74 1.74 0 0 0 -.18.51z"/><path d="m86.25 154.45c1-1.33 1.9-2.73 2.9-4.3 1.28-2 2.48-4.05 3.57-6.16a40.7 40.7 0 0 0 2.61-5.84 48.74 48.74 0 0 0 1.91-6.69c.12-.6.23-1.2.33-1.8 0-.28.05-.25.05-.21s0-.19 0-.52c.11-1.22.19-2.44.2-3.67a30.84 30.84 0 0 0 -2.4-12.35 53.25 53.25 0 0 0 -8.57 21.09q-.13.68-.24 1.36s-.12.83-.17 1.16l-.13 1.14q-.09.86-.16 1.73c-.18 2.22-.26 4.46-.25 6.69 0 2.8.1 5.59.35 8.37zm5.14-33.34q.44-.5.9-1a2 2 0 0 0 -.06.87 2.77 2.77 0 0 0 -.84.14z"/><path d="m86.56 154.66c.08-1.63.12-3.33.12-5.18 0-2.37-.11-4.75-.33-7.11a40.7 40.7 0 0 0 -1-6.32 48.74 48.74 0 0 0 -2-6.66c-.22-.57-.45-1.13-.69-1.69-.11-.26-.09-.24-.07-.2l-.25-.46c-.57-1.08-1.16-2.16-1.81-3.19a30.84 30.84 0 0 0 -8.69-9.09 53.25 53.25 0 0 0 4.16 22.38q.26.64.53 1.27l.48 1.07.51 1q.39.78.8 1.54c1.05 2 2.19 3.89 3.4 5.76 1.53 2.38 3.15 4.66 4.84 6.88zm-13.7-30.82q.1-.66.24-1.31a2 2 0 0 0 .42.76 2.77 2.77 0 0 0 -.66.54z"/><path d="m86.64 155.51c-.48-.91-1-1.84-1.61-2.84-.77-1.28-1.59-2.53-2.47-3.73a25.6 25.6 0 0 0 -2.56-3.1 30.65 30.65 0 0 0 -3.24-2.95l-.92-.69c-.14-.1-.12-.1-.1-.09l-.28-.17c-.66-.4-1.32-.79-2-1.14a19.39 19.39 0 0 0 -7.63-2.1 33.49 33.49 0 0 0 9.47 10.75l.7.51.6.42.61.39.93.57q1.81 1.08 3.7 2c1.56.81 3.16 1.52 4.8 2.17zm-17.35-12.21q-.16-.39-.29-.78a1.26 1.26 0 0 0 .47.27 1.74 1.74 0 0 0 -.18.51z"/></g></svg>